<svg width="152" height="152" viewBox="0 0 152 152" fill="none" xmlns="http://www.w3.org/2000/svg">
<path fill-rule="evenodd" clip-rule="evenodd" d="M57.0662 2.41919H95.065L76.0656 14.7693L57.0662 2.41919Z" fill="#CFB14A"/>
<path d="M43.8041 20.5063C12.9538 39.0023 4.72705 37.9807 4.72705 57.4314C4.85055 90.6851 4.67969 106.849 4.74618 140.107H28.5001V149.607H65.4162C66.807 149.61 68.1846 149.338 69.4699 148.807C70.7553 148.276 71.9233 147.496 72.9065 146.512C73.8898 145.528 74.669 144.359 75.1997 143.074C75.7304 141.788 76.0018 140.411 75.9987 139.02C75.9987 144.881 80.7152 149.607 86.5766 149.607H123.497V140.107H147.223C147.289 106.849 147.123 90.6851 147.251 57.4314C147.251 37.9807 138.986 39.0023 108.136 20.5063L101.106 32.6895H50.872L43.8041 20.5063Z" fill="#2F833A"/>
<path fill-rule="evenodd" clip-rule="evenodd" d="M51.8411 14.2942L51.8648 11.9297L75.8278 14.2942L99.9951 11.9865L99.8148 14.2942L76.0655 85.542L51.8411 14.2942Z" fill="#F4F0E7"/>
<path fill-rule="evenodd" clip-rule="evenodd" d="M71.2491 23.7314L68.1619 76.2791L75.9801 85.4703L83.803 75.6668L80.7488 23.7314" fill="#CFB14A"/>
<path d="M43.7805 20.5112C41.7286 21.7462 40.0281 22.6963 38.1662 23.7698L37.9998 34.6947C37.9839 35.7806 38.3406 36.8387 39.0104 37.6935C39.6802 38.5483 40.6229 39.1481 41.681 39.3924L44.8729 40.1241L43.5478 43.7619H43.5382C42.9286 45.4536 42.9812 47.3129 43.6855 48.9675C43.809 49.2525 43.9562 49.5332 44.1319 49.7896L67.2399 83.6417C67.7387 84.7911 68.5746 86.5824 69.5435 88.6629L71.6097 93.1089C73.7709 97.6783 80.6299 96.1577 80.6537 91.1039H75.9038C75.9038 91.1039 71.9139 82.5685 71.3914 81.305L48.0552 47.1294C47.8214 46.5782 47.8044 45.959 48.0077 45.3958L51.1712 36.7136L42.7496 34.7701L42.9253 22.5916C42.8864 22.2027 42.9443 21.8106 43.0935 21.4494C43.2426 21.0881 43.4786 20.7687 43.7805 20.5205V20.5112Z" fill="#174A21"/>
<path fill-rule="evenodd" clip-rule="evenodd" d="M71.249 23.7314L70.8501 30.4666L73.3343 32.2107C74.1337 32.7717 75.0863 33.0723 76.0629 33.0723C77.0395 33.0723 77.9925 32.7717 78.7918 32.2107L81.1476 30.5617L80.7487 23.7314H71.249Z" fill="#937713"/>
<path fill-rule="evenodd" clip-rule="evenodd" d="M66.8745 21.8688L76.0655 28.3152L85.2564 21.8688L75.9562 14.2129L66.8745 21.8688Z" fill="#CFB14A"/>
<path fill-rule="evenodd" clip-rule="evenodd" d="M56.9993 2.35767L75.9987 14.2323L66.499 23.732L51.8647 11.8574L56.9993 2.35767ZM94.9982 2.35767L75.9987 14.2323L85.4985 23.732L100.076 11.8574L94.9982 2.35767Z" fill="#F0E8D7"/>
<path d="M51.8648 11.8577C51.8648 11.8577 50.834 12.0576 50.4303 12.3853L43.7807 20.512C43.4796 20.7607 43.2445 21.0796 43.0962 21.4409C42.9479 21.8021 42.8909 22.1946 42.9304 22.5831L42.7498 34.7616L51.1713 36.704L48.0078 45.3873C47.8045 45.9505 47.8215 46.5697 48.0554 47.121L71.3866 81.2965C71.9091 82.56 75.9086 91.1 75.9086 91.1L75.9419 80.1369L51.8648 11.8577ZM100.076 11.8577C100.076 11.8577 101.107 12.0574 101.515 12.3899L108.16 20.512C108.768 21.0155 109.324 22.3885 109.248 23.1722L109.196 34.7616L100.769 36.704L103.933 45.3873C104.136 45.9505 104.119 46.5697 103.885 47.121L80.5538 81.2965C80.0313 82.56 76.0321 91.1 76.0321 91.1L75.9988 80.1369L100.076 11.8577Z" fill="#2F833A"/>
<path fill-rule="evenodd" clip-rule="evenodd" d="M4.78882 128.225V132.974H26.1632V128.225H4.78882ZM125.34 128.225V132.974H147.285V128.225H125.34Z" fill="#2F833A"/>
<path d="M68.8835 123.479C70.1951 123.479 71.2584 122.416 71.2584 121.104C71.2584 119.793 70.1951 118.729 68.8835 118.729C67.5718 118.729 66.5085 119.793 66.5085 121.104C66.5085 122.416 67.5718 123.479 68.8835 123.479Z" fill="#2F833A"/>
<path d="M68.8835 132.979C70.1951 132.979 71.2584 131.916 71.2584 130.604C71.2584 129.293 70.1951 128.229 68.8835 128.229C67.5718 128.229 66.5085 129.293 66.5085 130.604C66.5085 131.916 67.5718 132.979 68.8835 132.979Z" fill="#2F833A"/>
<path d="M68.8835 113.979C70.1951 113.979 71.2584 112.916 71.2584 111.604C71.2584 110.293 70.1951 109.229 68.8835 109.229C67.5718 109.229 66.5085 110.293 66.5085 111.604C66.5085 112.916 67.5718 113.979 68.8835 113.979Z" fill="#2F833A"/>
<path fill-rule="evenodd" clip-rule="evenodd" d="M97.3733 83.1052L106.873 73.6055L111.623 83.1052" fill="#CFB14A"/>
<path d="M95.0315 83.1055H114.031" stroke="#2F833A" stroke-width="1.99994" stroke-linecap="round"/>
<path d="M28.5096 75.8145H23.7598V139.938H28.5096V75.8145Z" fill="#174A21"/>
<path d="M128.257 75.8145H123.507V139.938H128.257V75.8145Z" fill="#174A21"/>
<path d="M108.236 20.5156C110.288 21.7458 111.988 22.7008 113.846 23.7696L114.012 34.6991C114.027 35.7841 113.669 36.8418 113 37.6956C112.33 38.5494 111.388 39.1481 110.331 39.3921L107.139 40.1227L108.469 43.7616H108.474C109.085 45.4527 109.034 47.3121 108.331 48.9672C108.21 49.2569 108.061 49.5341 107.885 49.794L84.7716 83.6461C84.2776 84.7955 83.4419 86.581 82.4729 88.6615L80.4018 93.1075C78.2454 97.6769 71.3867 96.1575 71.3582 91.1037H76.108C76.108 91.1037 80.0978 82.5682 80.6251 81.3048L103.956 47.1292C104.19 46.578 104.207 45.9588 104.004 45.3956L100.841 36.7122L109.267 34.7745L109.091 22.5914C109.129 22.2032 109.071 21.8118 108.922 21.4514C108.773 21.0911 108.537 20.7726 108.236 20.5249V20.5156Z" fill="#174A21"/>
<path d="M71.2586 92.0581V139.02C71.2605 140.41 70.9879 141.788 70.4564 143.073C69.925 144.358 69.1451 145.526 68.1615 146.509C67.1779 147.492 66.01 148.272 64.7246 148.802C63.4393 149.333 62.0618 149.605 60.6711 149.603H65.4164C66.8066 149.604 68.1836 149.332 69.4684 148.801C70.7532 148.27 71.9205 147.491 72.9035 146.508C73.8866 145.524 74.6661 144.356 75.1973 143.072C75.7285 141.787 76.0008 140.41 75.9989 139.02V92.0581H71.2586Z" fill="#174A21"/>
<path d="M80.6868 92.0583V139.02C80.6868 144.881 85.413 149.603 91.2743 149.603H86.534C85.1433 149.605 83.7658 149.333 82.4805 148.803C81.1952 148.272 80.0272 147.492 79.0436 146.509C78.0601 145.526 77.2802 144.358 76.7487 143.073C76.2173 141.788 75.9447 140.411 75.9465 139.02V92.0583H80.6868ZM108.155 20.5159C108.763 21.0194 109.328 22.3876 109.248 23.1761L109.2 33.6731C139.02 51.4138 147.204 50.7961 147.247 69.8478C147.256 65.5065 147.228 62.4238 147.247 57.427C147.247 37.9811 138.982 38.9977 108.155 20.5112V20.5159Z" fill="#174A21"/>
<path d="M124.096 34.8698C124.096 34.8698 137.757 45.1439 137.757 57.427C137.628 90.6808 137.795 106.849 137.728 140.103H147.218C147.285 106.849 147.123 90.6808 147.247 57.427C147.247 40.5365 119.185 26.8857 119.185 26.8857L124.096 34.8698Z" fill="#174A21"/>
<path fill-rule="evenodd" clip-rule="evenodd" d="M137.728 128.229V132.979H147.218V128.229H137.728Z" fill="#174A21"/>
</svg>
