<svg width="180" height="180" viewBox="0 0 180 180" fill="none" xmlns="http://www.w3.org/2000/svg">
<rect x="1" y="1" width="178" height="178" rx="89" fill="#937713" stroke="#E2CE9C" stroke-width="2"/>
<path d="M117.188 138.756H42.1875C41.9412 138.756 41.6974 138.707 41.4698 138.613C41.2423 138.519 41.0355 138.381 40.8614 138.207C40.6872 138.033 40.5491 137.826 40.4549 137.598C40.3608 137.371 40.3124 137.127 40.3125 136.881V31.8806C40.3124 31.6344 40.3609 31.3905 40.4551 31.163C40.5493 30.9355 40.6874 30.7288 40.8615 30.5546C41.0357 30.3805 41.2424 30.2424 41.4699 30.1482C41.6974 30.054 41.9413 30.0056 42.1875 30.0056H105.938C106.434 30.0057 106.91 30.2026 107.261 30.5531L118.511 41.7811C118.686 41.9552 118.825 42.1621 118.919 42.3899C119.014 42.6177 119.063 42.862 119.062 43.1086V136.881C119.063 137.127 119.014 137.371 118.92 137.598C118.826 137.826 118.688 138.033 118.514 138.207C118.34 138.381 118.133 138.519 117.905 138.613C117.678 138.707 117.434 138.756 117.188 138.756V138.756ZM44.0625 135.006H115.312V43.8859L105.161 33.7556H44.0625V135.006Z" fill="#F4F0E7"/>
<path d="M117.188 44.9834H105.938C105.44 44.9834 104.963 44.7859 104.612 44.4342C104.26 44.0826 104.062 43.6057 104.062 43.1084C104.062 42.6111 104.26 42.1342 104.612 41.7826C104.963 41.4309 105.44 41.2334 105.938 41.2334H117.188C117.685 41.2334 118.162 41.4309 118.513 41.7826C118.865 42.1342 119.062 42.6111 119.062 43.1084C119.062 43.6057 118.865 44.0826 118.513 44.4342C118.162 44.7859 117.685 44.9834 117.188 44.9834Z" fill="#F4F0E7"/>
<path d="M105.938 44.7511C105.691 44.7512 105.447 44.7027 105.22 44.6085C104.992 44.5143 104.786 44.3762 104.612 44.2021C104.437 44.0279 104.299 43.8212 104.205 43.5937C104.111 43.3662 104.062 43.1223 104.063 42.8761V31.8806C104.063 31.3833 104.26 30.9064 104.612 30.5548C104.963 30.2032 105.44 30.0056 105.938 30.0056C106.435 30.0056 106.912 30.2032 107.263 30.5548C107.615 30.9064 107.812 31.3833 107.812 31.8806V42.8761C107.813 43.1223 107.764 43.3662 107.67 43.5937C107.576 43.8212 107.438 44.0279 107.263 44.2021C107.089 44.3762 106.883 44.5143 106.655 44.6085C106.428 44.7027 106.184 44.7512 105.938 44.7511V44.7511ZM132.188 63.7336C131.941 63.7337 131.697 63.6853 131.47 63.591C131.242 63.4968 131.036 63.3587 130.862 63.1846C130.687 63.0105 130.549 62.8038 130.455 62.5762C130.361 62.3487 130.312 62.1049 130.312 61.8586C130.312 61.3614 130.115 60.8844 129.763 60.5328C129.412 60.1812 128.935 59.9836 128.438 59.9836C127.94 59.9836 127.463 60.1812 127.112 60.5328C126.76 60.8844 126.562 61.3614 126.562 61.8586C126.562 62.3559 126.365 62.8328 126.013 63.1845C125.662 63.5361 125.185 63.7336 124.688 63.7336C124.19 63.7336 123.713 63.5361 123.362 63.1845C123.01 62.8328 122.812 62.3559 122.812 61.8586C122.812 60.3668 123.405 58.9361 124.46 57.8812C125.515 56.8263 126.946 56.2336 128.438 56.2336C129.929 56.2336 131.36 56.8263 132.415 57.8812C133.47 58.9361 134.062 60.3668 134.062 61.8586C134.063 62.1049 134.014 62.3487 133.92 62.5762C133.826 62.8038 133.688 63.0105 133.513 63.1846C133.339 63.3587 133.133 63.4968 132.905 63.591C132.678 63.6853 132.434 63.7337 132.188 63.7336V63.7336Z" fill="#F4F0E7"/>
<path d="M124.688 127.483C124.441 127.484 124.197 127.435 123.97 127.341C123.742 127.247 123.535 127.109 123.361 126.935C123.187 126.76 123.049 126.554 122.955 126.326C122.861 126.099 122.812 125.855 122.813 125.608V61.8584C122.813 61.3611 123.01 60.8842 123.362 60.5326C123.713 60.1809 124.19 59.9834 124.688 59.9834C125.185 59.9834 125.662 60.1809 126.013 60.5326C126.365 60.8842 126.563 61.3611 126.563 61.8584V125.608C126.563 125.855 126.514 126.099 126.42 126.326C126.326 126.554 126.188 126.76 126.014 126.935C125.84 127.109 125.633 127.247 125.405 127.341C125.178 127.435 124.934 127.484 124.688 127.483V127.483ZM132.188 127.483C131.941 127.484 131.697 127.435 131.47 127.341C131.242 127.247 131.035 127.109 130.861 126.935C130.687 126.76 130.549 126.554 130.455 126.326C130.361 126.099 130.312 125.855 130.312 125.608V61.8584C130.312 61.3611 130.51 60.8842 130.862 60.5326C131.213 60.1809 131.69 59.9834 132.188 59.9834C132.685 59.9834 133.162 60.1809 133.513 60.5326C133.865 60.8842 134.062 61.3611 134.062 61.8584V125.608C134.063 125.855 134.014 126.099 133.92 126.326C133.826 126.554 133.688 126.76 133.514 126.935C133.34 127.109 133.133 127.247 132.905 127.341C132.678 127.435 132.434 127.484 132.188 127.483V127.483Z" fill="#F4F0E7"/>
<path d="M128.439 133.109C128.13 133.109 127.826 133.033 127.553 132.887C127.281 132.742 127.049 132.531 126.877 132.274L123.127 126.649C122.857 126.235 122.762 125.731 122.861 125.247C122.96 124.763 123.246 124.338 123.658 124.064C124.069 123.79 124.571 123.689 125.056 123.783C125.541 123.878 125.969 124.16 126.248 124.569L129.998 130.194C130.186 130.476 130.294 130.804 130.31 131.143C130.327 131.481 130.251 131.818 130.091 132.117C129.931 132.417 129.693 132.667 129.402 132.841C129.111 133.016 128.778 133.108 128.439 133.109H128.439Z" fill="#F4F0E7"/>
<path d="M128.436 133.108C128.096 133.108 127.764 133.016 127.473 132.841C127.182 132.667 126.944 132.417 126.784 132.117C126.624 131.818 126.548 131.481 126.565 131.142C126.581 130.804 126.689 130.476 126.877 130.193L130.627 124.568C130.905 124.159 131.333 123.875 131.819 123.78C132.304 123.685 132.808 123.785 133.22 124.06C133.632 124.334 133.918 124.761 134.017 125.245C134.116 125.73 134.019 126.235 133.747 126.649L129.997 132.274C129.826 132.531 129.594 132.742 129.322 132.887C129.049 133.033 128.745 133.109 128.436 133.108V133.108Z" fill="#F4F0E7"/>
<path d="M128.438 134.983C128.191 134.984 127.947 134.935 127.72 134.841C127.492 134.747 127.285 134.609 127.111 134.435C126.937 134.26 126.799 134.054 126.705 133.826C126.611 133.599 126.562 133.355 126.562 133.108V131.233C126.562 130.736 126.76 130.259 127.112 129.908C127.463 129.556 127.94 129.358 128.438 129.358C128.935 129.358 129.412 129.556 129.763 129.908C130.115 130.259 130.312 130.736 130.312 131.233V133.108C130.313 133.355 130.264 133.599 130.17 133.826C130.076 134.054 129.938 134.26 129.764 134.435C129.59 134.609 129.383 134.747 129.155 134.841C128.928 134.935 128.684 134.984 128.438 134.983V134.983ZM132.188 123.733H124.688C124.19 123.733 123.713 123.536 123.362 123.184C123.01 122.833 122.812 122.356 122.812 121.858C122.812 121.361 123.01 120.884 123.362 120.533C123.713 120.181 124.19 119.983 124.688 119.983H132.188C132.685 119.983 133.162 120.181 133.513 120.533C133.865 120.884 134.062 121.361 134.062 121.858C134.062 122.356 133.865 122.833 133.513 123.184C133.162 123.536 132.685 123.733 132.188 123.733ZM137.812 69.3584C137.566 69.3585 137.322 69.31 137.095 69.2158C136.867 69.1216 136.661 68.9835 136.487 68.8094C136.312 68.6352 136.174 68.4285 136.08 68.201C135.986 67.9735 135.937 67.7296 135.938 67.4834C135.937 66.9863 135.739 66.5096 135.388 66.1581C135.036 65.8066 134.56 65.6089 134.062 65.6084C133.565 65.6084 133.088 65.4109 132.737 65.0592C132.385 64.7076 132.188 64.2307 132.188 63.7334C132.188 63.2361 132.385 62.7592 132.737 62.4076C133.088 62.0559 133.565 61.8584 134.062 61.8584C135.554 61.86 136.984 62.4532 138.038 63.5077C139.093 64.5623 139.686 65.9921 139.688 67.4834C139.688 67.7296 139.639 67.9735 139.545 68.201C139.451 68.4285 139.313 68.6352 139.138 68.8094C138.964 68.9835 138.758 69.1216 138.53 69.2158C138.303 69.31 138.059 69.3585 137.812 69.3584Z" fill="#F4F0E7"/>
<path d="M137.812 91.8584C137.566 91.8585 137.322 91.81 137.095 91.7158C136.867 91.6216 136.661 91.4835 136.487 91.3094C136.312 91.1352 136.174 90.9285 136.08 90.701C135.986 90.4735 135.937 90.2296 135.938 89.9834V67.4834C135.938 66.9861 136.135 66.5092 136.487 66.1576C136.838 65.8059 137.315 65.6084 137.812 65.6084C138.31 65.6084 138.787 65.8059 139.138 66.1576C139.49 66.5092 139.688 66.9861 139.688 67.4834V89.9834C139.688 90.2296 139.639 90.4735 139.545 90.701C139.451 90.9285 139.313 91.1352 139.138 91.3094C138.964 91.4835 138.758 91.6216 138.53 91.7158C138.303 91.81 138.059 91.8585 137.812 91.8584V91.8584ZM134.062 65.6084H132.188C131.69 65.6084 131.213 65.4109 130.862 65.0592C130.51 64.7076 130.312 64.2307 130.312 63.7334C130.312 63.2361 130.51 62.7592 130.862 62.4076C131.213 62.0559 131.69 61.8584 132.188 61.8584H134.062C134.56 61.8584 135.037 62.0559 135.388 62.4076C135.74 62.7592 135.938 63.2361 135.938 63.7334C135.938 64.2307 135.74 64.7076 135.388 65.0592C135.037 65.4109 134.56 65.6084 134.062 65.6084ZM132.188 82.4834H124.688C124.19 82.4834 123.713 82.2859 123.362 81.9342C123.01 81.5826 122.812 81.1057 122.812 80.6084C122.812 80.1111 123.01 79.6342 123.362 79.2826C123.713 78.9309 124.19 78.7334 124.688 78.7334H132.188C132.685 78.7334 133.162 78.9309 133.513 79.2826C133.865 79.6342 134.062 80.1111 134.062 80.6084C134.062 81.1057 133.865 81.5826 133.513 81.9342C133.162 82.2859 132.685 82.4834 132.188 82.4834ZM117.188 144.369H42.1875C41.6902 144.369 41.2133 144.172 40.8617 143.82C40.51 143.469 40.3125 142.992 40.3125 142.494C40.3125 141.997 40.51 141.52 40.8617 141.169C41.2133 140.817 41.6902 140.619 42.1875 140.619H117.188C117.685 140.619 118.162 140.817 118.513 141.169C118.865 141.52 119.062 141.997 119.062 142.494C119.062 142.992 118.865 143.469 118.513 143.82C118.162 144.172 117.685 144.369 117.188 144.369ZM117.188 149.994H42.1875C41.6902 149.994 41.2133 149.797 40.8617 149.445C40.51 149.094 40.3125 148.617 40.3125 148.119C40.3125 147.622 40.51 147.145 40.8617 146.794C41.2133 146.442 41.6902 146.244 42.1875 146.244H117.188C117.685 146.244 118.162 146.442 118.513 146.794C118.865 147.145 119.062 147.622 119.062 148.119C119.062 148.617 118.865 149.094 118.513 149.445C118.162 149.797 117.685 149.994 117.188 149.994Z" fill="#F4F0E7"/>
<path d="M42.1875 149.994C41.9412 149.995 41.6974 149.946 41.4698 149.852C41.2423 149.758 41.0355 149.62 40.8614 149.446C40.6872 149.271 40.5491 149.065 40.4549 148.837C40.3608 148.61 40.3124 148.366 40.3125 148.119V136.88C40.3125 136.383 40.51 135.906 40.8617 135.555C41.2133 135.203 41.6902 135.005 42.1875 135.005C42.6848 135.005 43.1617 135.203 43.5133 135.555C43.865 135.906 44.0625 136.383 44.0625 136.88V148.119C44.0626 148.366 44.0142 148.61 43.9201 148.837C43.8259 149.065 43.6878 149.271 43.5136 149.446C43.3395 149.62 43.1327 149.758 42.9052 149.852C42.6776 149.946 42.4338 149.995 42.1875 149.994V149.994ZM117.188 149.994C116.941 149.995 116.697 149.946 116.47 149.852C116.242 149.758 116.035 149.62 115.861 149.446C115.687 149.271 115.549 149.065 115.455 148.837C115.361 148.61 115.312 148.366 115.312 148.119V136.88C115.312 136.383 115.51 135.906 115.862 135.555C116.213 135.203 116.69 135.005 117.188 135.005C117.685 135.005 118.162 135.203 118.513 135.555C118.865 135.906 119.062 136.383 119.062 136.88V148.119C119.063 148.366 119.014 148.61 118.92 148.837C118.826 149.065 118.688 149.271 118.514 149.446C118.34 149.62 118.133 149.758 117.905 149.852C117.678 149.946 117.434 149.995 117.188 149.994V149.994ZM61.875 61.8694C60.2062 61.8694 58.5749 61.3745 57.1874 60.4474C55.7998 59.5203 54.7184 58.2025 54.0798 56.6608C53.4412 55.119 53.2741 53.4225 53.5996 51.7858C53.9252 50.1491 54.7288 48.6457 55.9088 47.4657C57.0888 46.2857 58.5922 45.4821 60.2289 45.1565C61.8656 44.8309 63.5621 44.998 65.1039 45.6367C66.6456 46.2753 67.9634 47.3567 68.8905 48.7443C69.8176 50.1318 70.3125 51.7631 70.3125 53.4319C70.3101 55.6689 69.4203 57.8136 67.8385 59.3954C66.2567 60.9772 64.112 61.867 61.875 61.8694V61.8694ZM61.875 48.7444C60.9479 48.7444 60.0416 49.0193 59.2708 49.5344C58.4999 50.0494 57.8991 50.7815 57.5443 51.6381C57.1895 52.4946 57.0967 53.4371 57.2776 54.3464C57.4584 55.2557 57.9049 56.0909 58.5604 56.7465C59.216 57.402 60.0512 57.8485 60.9605 58.0293C61.8698 58.2102 62.8123 58.1174 63.6688 57.7626C64.5254 57.4078 65.2574 56.807 65.7725 56.0361C66.2876 55.2653 66.5625 54.359 66.5625 53.4319C66.5612 52.1891 66.0669 50.9976 65.1881 50.1188C64.3093 49.24 63.1178 48.7457 61.875 48.7444V48.7444Z" fill="#F4F0E7"/>
<path d="M69.3732 61.8694C67.7044 61.8694 66.0731 61.3745 64.6855 60.4474C63.298 59.5203 62.2166 58.2025 61.5779 56.6608C60.9393 55.119 60.7722 53.4225 61.0978 51.7858C61.4234 50.1491 62.227 48.6457 63.407 47.4657C64.587 46.2857 66.0904 45.4821 67.7271 45.1565C69.3638 44.8309 71.0603 44.998 72.6021 45.6367C74.1438 46.2753 75.4616 47.3567 76.3887 48.7443C77.3158 50.1318 77.8107 51.7631 77.8107 53.4319C77.8082 55.6689 76.9185 57.8136 75.3367 59.3954C73.7549 60.9772 71.6102 61.8669 69.3732 61.8694V61.8694ZM69.3732 48.7444C68.4461 48.7444 67.5398 49.0193 66.7689 49.5344C65.9981 50.0494 65.3973 50.7815 65.0425 51.6381C64.6877 52.4946 64.5949 53.4371 64.7757 54.3464C64.9566 55.2557 65.4031 56.0909 66.0586 56.7465C66.7142 57.402 67.5494 57.8485 68.4587 58.0293C69.368 58.2102 70.3105 58.1174 71.167 57.7626C72.0235 57.4078 72.7556 56.807 73.2707 56.0361C73.7858 55.2653 74.0607 54.359 74.0607 53.4319C74.0594 52.1891 73.5651 50.9976 72.6863 50.1188C71.8075 49.24 70.616 48.7457 69.3732 48.7444V48.7444Z" fill="#F4F0E7"/>
<path d="M69.3714 48.7444C69.0232 48.7442 68.682 48.6471 68.386 48.4639C68.09 48.2807 67.8508 48.0187 67.6953 47.7072C67.5398 47.3957 67.4741 47.0471 67.5056 46.7004C67.5371 46.3537 67.6645 46.0226 67.8736 45.7443L70.6879 41.9943C70.8357 41.7973 71.0208 41.6314 71.2327 41.506C71.4446 41.3806 71.6791 41.2982 71.9228 41.2634C72.1665 41.2286 72.4147 41.2422 72.6532 41.3034C72.8917 41.3645 73.1158 41.4721 73.3128 41.6198C73.5097 41.7676 73.6756 41.9527 73.801 42.1646C73.9264 42.3764 74.0088 42.6109 74.0436 42.8547C74.0784 43.0984 74.0648 43.3466 74.0036 43.5851C73.9425 43.8236 73.835 44.0477 73.6872 44.2446L70.8728 47.9946C70.6981 48.2277 70.4714 48.4169 70.2108 48.5471C69.9501 48.6772 69.6627 48.7448 69.3714 48.7444Z" fill="#F4F0E7"/>
<path d="M69.375 48.7445C69.0835 48.7451 68.7959 48.6775 68.5352 48.5471C68.2745 48.4168 68.0479 48.2273 67.8735 47.9937L65.0629 44.2437C64.9144 44.0469 64.8063 43.8226 64.7446 43.5839C64.6829 43.3451 64.669 43.0966 64.7036 42.8524C64.7381 42.6083 64.8206 42.3734 64.9461 42.1611C65.0716 41.9489 65.2378 41.7635 65.4351 41.6156C65.6323 41.4677 65.8569 41.3602 66.0958 41.2992C66.3347 41.2382 66.5833 41.225 66.8274 41.2602C67.0714 41.2955 67.3061 41.3786 67.518 41.5047C67.7299 41.6308 67.9148 41.7975 68.0621 41.9952L70.8728 45.7452C71.0816 46.0236 71.2088 46.3546 71.2401 46.7011C71.2715 47.0477 71.2057 47.3961 71.0503 47.7075C70.8948 48.0188 70.6557 48.2807 70.3599 48.4638C70.064 48.647 69.7229 48.7442 69.375 48.7445V48.7445Z" fill="#F4F0E7"/>
<path d="M72.1875 44.9944H66.5625C66.0652 44.9944 65.5883 44.7968 65.2367 44.4452C64.885 44.0936 64.6875 43.6167 64.6875 43.1194C64.6875 42.6221 64.885 42.1452 65.2367 41.7936C65.5883 41.4419 66.0652 41.2444 66.5625 41.2444H72.1875C72.6848 41.2444 73.1617 41.4419 73.5133 41.7936C73.865 42.1452 74.0625 42.6221 74.0625 43.1194C74.0625 43.6167 73.865 44.0936 73.5133 44.4452C73.1617 44.7968 72.6848 44.9944 72.1875 44.9944ZM103.991 78.7444H55.3839C54.8866 78.7444 54.4097 78.5468 54.0581 78.1952C53.7065 77.8436 53.5089 77.3667 53.5089 76.8694C53.5089 76.3721 53.7065 75.8952 54.0581 75.5436C54.4097 75.1919 54.8866 74.9944 55.3839 74.9944H103.991C104.488 74.9944 104.965 75.1919 105.317 75.5436C105.669 75.8952 105.866 76.3721 105.866 76.8694C105.866 77.3667 105.669 77.8436 105.317 78.1952C104.965 78.5468 104.488 78.7444 103.991 78.7444ZM103.991 86.2444H55.3839C54.8866 86.2444 54.4097 86.0468 54.0581 85.6952C53.7065 85.3436 53.5089 84.8667 53.5089 84.3694C53.5089 83.8721 53.7065 83.3952 54.0581 83.0436C54.4097 82.6919 54.8866 82.4944 55.3839 82.4944H103.991C104.488 82.4944 104.965 82.6919 105.317 83.0436C105.669 83.3952 105.866 83.8721 105.866 84.3694C105.866 84.8667 105.669 85.3436 105.317 85.6952C104.965 86.0468 104.488 86.2444 103.991 86.2444ZM103.991 93.7444H55.3839C54.8866 93.7444 54.4097 93.5468 54.0581 93.1952C53.7065 92.8436 53.5089 92.3667 53.5089 91.8694C53.5089 91.3721 53.7065 90.8952 54.0581 90.5436C54.4097 90.1919 54.8866 89.9944 55.3839 89.9944H103.991C104.488 89.9944 104.965 90.1919 105.317 90.5436C105.669 90.8952 105.866 91.3721 105.866 91.8694C105.866 92.3667 105.669 92.8436 105.317 93.1952C104.965 93.5468 104.488 93.7444 103.991 93.7444ZM103.991 101.244H55.3839C54.8866 101.244 54.4097 101.047 54.0581 100.695C53.7065 100.344 53.5089 99.8667 53.5089 99.3694C53.5089 98.8721 53.7065 98.3952 54.0581 98.0436C54.4097 97.6919 54.8866 97.4944 55.3839 97.4944H103.991C104.488 97.4944 104.965 97.6919 105.317 98.0436C105.669 98.3952 105.866 98.8721 105.866 99.3694C105.866 99.8667 105.669 100.344 105.317 100.695C104.965 101.047 104.488 101.244 103.991 101.244ZM81.4911 108.744H55.3839C54.8866 108.744 54.4097 108.547 54.0581 108.195C53.7065 107.844 53.5089 107.367 53.5089 106.869C53.5089 106.372 53.7065 105.895 54.0581 105.544C54.4097 105.192 54.8866 104.994 55.3839 104.994H81.4911C81.9884 104.994 82.4653 105.192 82.8169 105.544C83.1685 105.895 83.3661 106.372 83.3661 106.869C83.3661 107.367 83.1685 107.844 82.8169 108.195C82.4653 108.547 81.9884 108.744 81.4911 108.744ZM103.991 123.744H92.8125C92.3152 123.744 91.8383 123.547 91.4867 123.195C91.135 122.844 90.9375 122.367 90.9375 121.869C90.9375 121.372 91.135 120.895 91.4867 120.544C91.8383 120.192 92.3152 119.994 92.8125 119.994H103.991C104.488 119.994 104.965 120.192 105.317 120.544C105.669 120.895 105.866 121.372 105.866 121.869C105.866 122.367 105.669 122.844 105.317 123.195C104.965 123.547 104.488 123.744 103.991 123.744Z" fill="#F4F0E7"/>
</svg>
