<svg width="180" height="180" viewBox="0 0 180 180" fill="none" xmlns="http://www.w3.org/2000/svg">
<rect x="1" y="1" width="178" height="178" rx="89" fill="#937713" stroke="#E2CE9C" stroke-width="2"/>
<g clip-path="url(#clip0_93_400)">
<path d="M149.322 100.997L132.32 87.3957C131.596 86.816 130.686 86.4968 129.758 86.4968H114.694V78.2372H118.23C119.201 78.2372 119.987 77.4503 119.987 76.4797V70.6105C119.987 69.6399 119.201 68.853 118.23 68.853H113.841L106.246 58.2196C105.478 57.1445 104.23 56.5024 102.909 56.5024H94.7769L94.8029 47.2H98.9985C99.9729 47.2 100.762 46.4064 100.756 45.432L100.72 39.545C100.714 38.5783 99.9293 37.798 98.9627 37.798H94.7719V31.7948C94.7719 30.8242 93.9851 30.0373 93.0145 30.0373H87.0386C86.068 30.0373 85.2811 30.8242 85.2811 31.7948V37.7983C81.0271 37.7983 80.5589 37.6251 79.8716 38.3168C79.1846 39.0081 79.358 39.1297 79.3964 45.4536C79.4023 46.4202 80.1873 47.2005 81.1539 47.2005H85.3151L85.3048 56.5029H77.0911C75.7697 56.5029 74.5224 57.1447 73.7542 58.2201L66.1592 68.8532H61.7704C60.7998 68.8532 60.0129 69.6401 60.0129 70.6107V76.4799C60.0129 77.4505 60.7998 78.2374 61.7704 78.2374H65.3067V86.4968H61.0613C60.0907 86.4968 59.3039 87.2837 59.3039 88.2543C59.3039 89.2249 60.0907 90.0117 61.0613 90.0117H65.306V100.612C56.6264 100.612 45.4899 100.612 36.7862 100.612L49.8761 90.1399C50.0921 89.967 49.9672 90.0117 53.0119 90.0117C53.9825 90.0117 54.7694 89.2249 54.7694 88.2543C54.7694 87.2837 53.9825 86.4968 53.0119 86.4968C50.3797 86.4968 49.0869 86.2695 47.6802 87.3955L30.6782 100.997C29.3842 102.032 30.1189 104.127 31.776 104.127H37.0761V148.243C37.0761 149.213 37.863 150 38.8336 150C65.2317 150 125.687 150 141.167 150C142.137 150 142.924 149.213 142.924 148.243V104.127H148.224C149.881 104.127 150.616 102.032 149.322 100.997ZM82.9006 43.6853L82.8861 41.3132H87.0384C88.009 41.3132 88.7958 40.5263 88.7958 39.5557V33.5522H91.2568V39.5557C91.2568 40.5263 92.0436 41.3132 93.0142 41.3132H97.2158L97.2303 43.6853H93.0503C92.0816 43.6853 91.2957 44.4692 91.2928 45.4379L91.2619 56.5024H88.8197L88.8319 45.4447C88.8329 44.4738 88.0458 43.6853 87.0745 43.6853H82.9006V43.6853ZM76.6142 60.2632C76.8699 59.9054 74.8153 60.0178 102.909 60.0178C103.337 60.0178 102.866 59.5349 109.522 68.8535H70.4786L76.6142 60.2632ZM49.4128 146.485V127.241L52.9484 124.121L56.4839 127.241V146.485H49.4128ZM65.306 146.485H59.9991V126.448C59.9991 125.944 59.7826 125.464 59.4044 125.13L54.1114 120.459C53.447 119.873 52.45 119.873 51.7856 120.459L46.4926 125.13C46.1146 125.464 45.8979 125.944 45.8979 126.448V146.485H40.591V104.127H65.306V146.485ZM100.593 132.363V146.485H91.7575V121.919C96.7647 122.759 100.593 127.121 100.593 132.363ZM88.2426 146.485H79.407V132.363C79.407 127.121 83.2354 122.759 88.2426 121.919V146.485ZM123.516 146.485V127.241L127.051 124.121L130.587 127.241V146.485H123.516ZM139.409 146.485H134.102V126.448C134.102 125.944 133.886 125.464 133.507 125.13L128.214 120.459C127.55 119.873 126.553 119.873 125.889 120.459L120.596 125.13C120.218 125.464 120.001 125.944 120.001 126.448V146.485H114.694V130.213C114.694 129.242 113.907 128.455 112.937 128.455C111.966 128.455 111.179 129.242 111.179 130.213C111.179 131.767 111.179 127.5 111.179 146.485H104.108V132.363C104.108 124.584 97.7793 118.255 90.0001 118.255C82.2208 118.255 75.892 124.584 75.892 132.363V146.485H68.8214V104.128H71.885C72.8556 104.128 73.6425 103.341 73.6425 102.37C73.6425 101.4 72.8556 100.613 71.885 100.613H68.8214V78.2374H100.148C101.119 78.2374 101.905 77.4505 101.905 76.4799C101.905 75.5093 101.119 74.7225 100.148 74.7225C59.6483 74.7225 63.8332 74.7225 63.5279 74.7225V72.3682C67.9745 72.3682 109.488 72.3682 116.472 72.3682V74.7225C115.94 74.7225 118.828 74.7225 108.438 74.7225C107.467 74.7225 106.68 75.5093 106.68 76.4799C106.68 77.4505 107.467 78.2374 108.438 78.2374H111.179V100.613H97.0506V91.1609C97.0506 90.6566 96.834 90.1767 96.4558 89.843L91.1628 85.1724C90.4985 84.5861 89.5014 84.5861 88.8371 85.1724L83.544 89.843C83.1661 90.1767 82.9493 90.6566 82.9493 91.1609V100.613H79.9954C79.0248 100.613 78.2379 101.4 78.2379 102.37C78.2379 103.341 79.0248 104.128 79.9954 104.128H82.9493V112.955C82.9493 113.926 83.7362 114.713 84.7068 114.713H95.2931C96.2637 114.713 97.0506 113.926 97.0506 112.955V104.128H111.179V121.979C111.179 122.949 111.966 123.736 112.936 123.736C113.907 123.736 114.694 122.949 114.694 121.979C114.694 121.974 114.694 120.474 114.694 104.127H139.409V146.485V146.485ZM93.5356 91.9536V111.198H86.4643V91.9536L89.9998 88.8338L93.5356 91.9536ZM114.694 100.612V90.0117C130.984 90.0117 129.881 89.9459 130.124 90.1402L143.214 100.612C134.51 100.612 123.374 100.612 114.694 100.612ZM62.1399 45.7092C62.6445 45.9677 63.2408 45.9668 63.7432 45.7092C78.5301 38.1291 69.6687 26.3368 62.9416 31.1107C56.1788 26.3112 47.421 38.1638 62.1399 45.7092ZM57.7587 35.0983C58.4043 33.0386 60.5561 33.2542 61.4646 34.5125C62.1463 35.6558 63.7369 35.6563 64.4186 34.5125C65.3491 33.2239 67.4848 33.0594 68.1247 35.0986C68.3487 35.813 68.1999 36.4436 68.0912 36.9038C67.5408 39.2342 65.04 40.9423 62.9414 42.1448C60.8511 40.9469 58.3426 39.2375 57.7917 36.9038C57.6835 36.4434 57.5344 35.813 57.7587 35.0983Z" fill="#F4F0E7"/>
<path d="M44.1814 77.4676C44.6838 77.7251 45.2804 77.726 45.7847 77.4676C65.4714 67.3766 53.5012 51.895 44.9831 58.7639C36.4853 51.9114 24.4282 67.3427 44.1814 77.4676ZM43.499 62.2504C44.1882 63.3373 45.7777 63.338 46.4673 62.2504C46.4757 62.2373 47.3695 60.9345 49.0393 60.672C50.3215 60.471 51.3151 61.151 51.5019 61.2897C52.3529 61.9215 52.6306 62.807 52.7642 63.2325C53.1279 64.3918 52.8889 65.4036 52.7307 66.0735C51.9033 69.5784 48.1406 72.1478 44.9833 73.91C41.8245 72.1469 38.0635 69.5782 37.2359 66.0733C35.9562 60.6563 41.3531 59.1043 43.499 62.2504ZM135.072 82.7608C135.576 83.0193 136.173 83.0183 136.675 82.7608C151.521 75.15 142.561 63.416 135.873 68.1623C129.109 63.3616 120.359 75.2187 135.072 82.7608ZM130.69 72.1499C131.333 70.0995 133.481 70.298 134.396 71.5639C135.077 72.7069 136.669 72.7079 137.35 71.5639C138.289 70.2636 140.421 70.1251 141.056 72.1499C141.28 72.8642 141.132 73.495 141.023 73.9552C140.472 76.2856 137.972 77.9936 135.873 79.1962C133.783 77.9983 131.274 76.2889 130.723 73.9552C130.615 73.495 130.466 72.8646 130.69 72.1499Z" fill="#F4F0E7"/>
</g>
<defs>
<clipPath id="clip0_93_400">
<rect width="120" height="120" fill="white" transform="translate(30 30)"/>
</clipPath>
</defs>
</svg>
