<svg width="180" height="180" viewBox="0 0 180 180" fill="none" xmlns="http://www.w3.org/2000/svg">
<rect x="1" y="1" width="178" height="178" rx="89" fill="#937713" stroke="#E2CE9C" stroke-width="2"/>
<path d="M90 146.25C89.8569 146.27 89.7118 146.27 89.5688 146.25L50.1938 136.875C49.7401 136.772 49.3411 136.503 49.0742 136.122C48.8074 135.741 48.6918 135.274 48.75 134.813L53.0063 93.3938C53.4282 89.0464 54.6286 84.8102 56.55 80.8876C59.0829 75.7125 62.7833 71.1965 67.3595 67.6956C71.9357 64.1948 77.2625 61.8048 82.92 60.714C88.5775 59.6232 94.4111 59.8615 99.9608 61.4101C105.51 62.9586 110.625 65.7752 114.9 69.6376C121.739 75.803 126.042 84.2898 126.975 93.4501L131.25 134.813C131.308 135.274 131.193 135.741 130.926 136.122C130.659 136.503 130.26 136.772 129.806 136.875L90.4312 146.25C90.2882 146.27 90.1431 146.27 90 146.25V146.25ZM52.65 133.556L90 142.5L127.35 133.613L123.262 93.7501C122.431 85.5062 118.568 77.8648 112.422 72.3077C106.276 66.7505 98.2857 63.6736 90 63.6736C81.7143 63.6736 73.7238 66.7505 67.578 72.3077C61.4322 77.8648 57.569 85.5062 56.7375 93.7501L52.65 133.556Z" fill="#F4F0E7"/>
<path d="M75.9375 95.625C77.4908 95.625 78.75 94.3658 78.75 92.8125C78.75 91.2592 77.4908 90 75.9375 90C74.3842 90 73.125 91.2592 73.125 92.8125C73.125 94.3658 74.3842 95.625 75.9375 95.625Z" fill="#F4F0E7"/>
<path d="M104.062 95.625C105.616 95.625 106.875 94.3658 106.875 92.8125C106.875 91.2592 105.616 90 104.062 90C102.509 90 101.25 91.2592 101.25 92.8125C101.25 94.3658 102.509 95.625 104.062 95.625Z" fill="#F4F0E7"/>
<path d="M90 126.881C86.8125 126.881 80.625 124.669 80.625 120.619C80.6345 119.759 80.8305 118.911 81.1995 118.134C81.5686 117.357 82.1018 116.669 82.7625 116.119C84.0766 114.976 85.7647 114.355 87.5063 114.375H92.4938C94.2322 114.298 95.9306 114.911 97.2193 116.081C98.508 117.25 99.2828 118.881 99.375 120.619C99.2506 121.681 98.8344 122.689 98.1725 123.53C97.5106 124.37 96.6289 125.011 95.625 125.381C93.8859 126.296 91.9636 126.809 90 126.881V126.881ZM87.5063 118.125C86.6763 118.104 85.868 118.391 85.2375 118.931C84.9757 119.129 84.7622 119.384 84.6128 119.676C84.4634 119.968 84.3821 120.291 84.375 120.619C84.375 121.35 87.5062 123.131 90 123.131C91.3623 123.063 92.6932 122.698 93.9 122.062C95.25 121.35 95.6063 120.75 95.625 120.619C95.5221 119.881 95.1398 119.211 94.5572 118.747C93.9745 118.283 93.2358 118.06 92.4938 118.125H87.5063ZM58.2562 83.5875H57.8812C57.4731 83.5047 57.1041 83.2884 56.8325 82.9727C56.5608 82.6569 56.4021 82.2597 56.3812 81.8437C56.2875 79.9687 56.25 78.0938 56.25 75.975C56.25 55.4813 61.5 33.75 71.25 33.75C79.3312 33.75 83.9063 48.4688 85.4813 62.25C85.5318 62.7193 85.4035 63.1904 85.122 63.5692C84.8405 63.9481 84.4264 64.2068 83.9625 64.2938C78.8248 65.2484 73.9818 67.3921 69.8209 70.5535C65.66 73.7148 62.2967 77.8061 60 82.5C59.8468 82.8313 59.6001 83.1107 59.2904 83.3039C58.9806 83.4971 58.6212 83.5957 58.2562 83.5875ZM71.25 37.5C66 37.5 60.1313 53.5688 60 75.2063C65.2588 68.0498 72.8977 63.0037 81.5437 60.975C79.5375 45.7125 74.8125 37.5 71.25 37.5ZM121.744 83.5875C121.379 83.5957 121.019 83.4971 120.71 83.3039C120.4 83.1107 120.153 82.8313 120 82.5C117.71 77.787 114.342 73.6796 110.169 70.5101C105.996 67.3406 101.136 65.1982 95.9812 64.2563C95.5173 64.1693 95.1033 63.9106 94.8218 63.5317C94.5402 63.1529 94.4119 62.6818 94.4625 62.2125C96.0938 48.4688 100.669 33.75 108.75 33.75C118.5 33.75 123.75 55.4813 123.75 75.9375C123.75 78.0937 123.75 80.0062 123.619 81.8062C123.598 82.2222 123.439 82.6194 123.168 82.9352C122.896 83.2509 122.527 83.4672 122.119 83.55L121.744 83.5875ZM98.4562 60.975C107.098 63.002 114.736 68.0405 120 75.1875C119.869 53.5688 114 37.5 108.75 37.5C105.188 37.5 100.462 45.7125 98.4562 60.975ZM82.5 135C80.9921 134.971 79.5155 134.565 78.2053 133.818C76.895 133.071 75.793 132.008 75 130.725L69.7313 122.306C69.2947 121.609 68.69 121.032 67.9725 120.629C67.255 120.226 66.4478 120.01 65.625 120C65.1277 120 64.6508 119.802 64.2992 119.451C63.9475 119.099 63.75 118.622 63.75 118.125C63.75 117.628 63.9475 117.151 64.2992 116.799C64.6508 116.448 65.1277 116.25 65.625 116.25C67.0929 116.245 68.5375 116.617 69.8209 117.329C71.1044 118.041 72.1839 119.071 72.9562 120.319L78.225 128.737C78.6779 129.474 79.3044 130.088 80.0497 130.526C80.795 130.964 81.6363 131.213 82.5 131.25C82.9973 131.25 83.4742 131.448 83.8258 131.799C84.1775 132.151 84.375 132.628 84.375 133.125C84.375 133.622 84.1775 134.099 83.8258 134.451C83.4742 134.802 82.9973 135 82.5 135Z" fill="#F4F0E7"/>
<path d="M90 135C89.5027 135 89.0258 134.802 88.6742 134.451C88.3225 134.099 88.125 133.622 88.125 133.125V125.625C88.125 125.128 88.3225 124.651 88.6742 124.299C89.0258 123.948 89.5027 123.75 90 123.75C90.4973 123.75 90.9742 123.948 91.3258 124.299C91.6774 124.651 91.875 125.128 91.875 125.625V133.125C91.875 133.622 91.6774 134.099 91.3258 134.451C90.9742 134.802 90.4973 135 90 135ZM97.5 135C97.0027 135 96.5258 134.802 96.1742 134.451C95.8225 134.099 95.625 133.622 95.625 133.125C95.625 132.628 95.8225 132.151 96.1742 131.799C96.5258 131.448 97.0027 131.25 97.5 131.25C98.3716 131.224 99.2232 130.982 99.9788 130.547C100.735 130.112 101.371 129.497 101.831 128.756L107.1 120.338C107.865 119.094 108.935 118.066 110.208 117.351C111.481 116.635 112.915 116.257 114.375 116.25C114.872 116.25 115.349 116.448 115.701 116.799C116.052 117.151 116.25 117.628 116.25 118.125C116.25 118.622 116.052 119.099 115.701 119.451C115.349 119.802 114.872 120 114.375 120C113.546 120.003 112.731 120.217 112.006 120.62C111.282 121.023 110.671 121.603 110.231 122.306L105 130.725C104.207 132.008 103.105 133.071 101.795 133.818C100.484 134.565 99.0079 134.971 97.5 135V135ZM82.7625 135H82.5C82.2538 134.983 82.0133 134.917 81.7924 134.807C81.5716 134.697 81.3745 134.544 81.2126 134.358C81.0507 134.172 80.927 133.955 80.8487 133.721C80.7704 133.487 80.739 133.24 80.7562 132.994C80.7735 132.748 80.839 132.507 80.9492 132.286C81.0593 132.065 81.2119 131.868 81.3982 131.706C81.5845 131.544 81.8009 131.421 82.035 131.342C82.269 131.264 82.5163 131.233 82.7625 131.25V131.25H83.1375C83.5777 131.326 83.9764 131.556 84.2617 131.9C84.547 132.244 84.7002 132.678 84.6937 133.125C84.6938 133.376 84.6436 133.625 84.5458 133.856C84.4481 134.087 84.3049 134.296 84.1248 134.471C83.9447 134.646 83.7313 134.783 83.4973 134.874C83.2633 134.965 83.0134 135.008 82.7625 135V135Z" fill="#F4F0E7"/>
<path d="M97.5 135H97.2375C96.7402 135 96.2633 134.803 95.9117 134.451C95.56 134.099 95.3625 133.622 95.3625 133.125C95.3625 132.628 95.56 132.151 95.9117 131.799C96.2633 131.448 96.7402 131.25 97.2375 131.25C97.5009 131.196 97.7734 131.203 98.0337 131.271C98.2939 131.339 98.5348 131.467 98.7375 131.644C98.9473 131.828 99.1133 132.056 99.2236 132.312C99.3339 132.569 99.3856 132.846 99.375 133.125C99.375 133.622 99.1774 134.099 98.8258 134.451C98.4742 134.803 97.9973 135 97.5 135Z" fill="#F4F0E7"/>
<path d="M97.5 135H82.5C82.0027 135 81.5258 134.802 81.1742 134.451C80.8225 134.099 80.625 133.622 80.625 133.125C80.625 132.628 80.8225 132.151 81.1742 131.799C81.5258 131.448 82.0027 131.25 82.5 131.25H97.5C97.9973 131.25 98.4742 131.448 98.8258 131.799C99.1775 132.151 99.375 132.628 99.375 133.125C99.375 133.622 99.1775 134.099 98.8258 134.451C98.4742 134.802 97.9973 135 97.5 135Z" fill="#F4F0E7"/>
</svg>
