<svg width="160" height="160" viewBox="0 0 160 160" fill="none" xmlns="http://www.w3.org/2000/svg">
<path d="M59.9489 6.28841C59.2869 6.29894 58.6562 6.57113 58.1951 7.04631C57.734 7.52148 57.4798 8.1612 57.4891 8.82327V36.1624C57.4939 36.3035 57.5107 36.4439 57.5391 36.5822C57.5891 38.6217 58.0745 40.6753 59.1593 42.5599L59.7939 43.5753C61.5244 45.7629 62.4717 48.4675 62.4844 51.2568C62.4971 54.046 61.5746 56.7582 59.8641 58.9614C54.3303 66.2748 45.5067 81.3016 42.4923 92.5491C38.8081 106.296 37.4934 121.293 37.4934 143.788V145.038C37.4934 149.052 44.9518 152.546 55.5895 153.521C66.2172 154.496 77.2949 152.697 82.4538 149.158L82.8236 148.787C82.8236 146.028 91.7019 143.788 102.655 143.788C113.602 143.788 122.486 146.028 122.486 148.787V143.788C122.486 121.293 121.171 106.296 117.487 92.5491C114.472 81.3016 105.649 66.2748 100.115 58.9614C98.4049 56.7582 97.4819 54.046 97.4945 51.2568C97.5072 48.4675 98.4545 45.7629 100.185 43.5753L100.82 42.5599C101.885 40.7103 102.369 38.7111 102.429 36.7116C102.47 36.531 102.49 36.3473 102.49 36.1624V8.82815C102.495 8.49317 102.433 8.1599 102.307 7.84936C102.182 7.53881 101.995 7.25635 101.758 7.01946C101.521 6.78256 101.239 6.59597 100.928 6.47026C100.618 6.34455 100.285 6.28301 99.9501 6.28841C99.6218 6.29362 99.2982 6.363 98.9969 6.49345C98.6956 6.62389 98.4229 6.81293 98.1945 7.04875C97.9661 7.28457 97.7861 7.56239 97.6654 7.86766C97.5447 8.17294 97.4856 8.49991 97.4909 8.82815V26.3793C97.2759 26.2193 97.1007 26.0289 96.8758 25.8789C94.2151 24.1238 90.9844 23.4512 87.8445 23.9994C84.7046 24.5477 81.8927 26.2758 79.9843 28.8287C78.0759 26.2758 75.2645 24.5477 72.1246 23.9994C68.9847 23.4512 65.754 24.1238 63.0934 25.8789C62.8784 26.0289 62.7034 26.2036 62.4984 26.3586V8.82815C62.5038 8.49317 62.4417 8.1599 62.316 7.84936C62.1902 7.53881 62.0036 7.25635 61.7668 7.01946C61.5299 6.78256 61.2474 6.59597 60.9369 6.47026C60.6263 6.34455 60.2936 6.28301 59.9587 6.28841H59.9489Z" fill="#CFB14A"/>
<path d="M122.475 148.787C122.475 151.547 113.6 153.787 102.647 153.787C91.6974 153.787 82.8174 150.092 82.8174 148.787C82.8174 146.11 91.6949 143.742 102.647 143.787C113.597 143.837 122.477 146.027 122.477 148.787H122.475Z" fill="#564405"/>
<path d="M82.7937 148.782C82.7937 146.023 91.672 143.783 102.625 143.783C113.577 143.783 122.456 146.023 122.456 148.782V143.783C122.456 121.288 121.141 106.291 117.457 92.544C114.442 81.2965 105.624 66.2697 100.085 58.9563C114.947 121.113 105.449 126.112 82.7742 148.787L82.7937 148.782Z" fill="#937713"/>
</svg>
