<svg width="48" height="48" viewBox="0 0 48 48" fill="none" xmlns="http://www.w3.org/2000/svg">
<path d="M8.68399 2.81598L44.746 38.88C45.3088 39.4425 45.6251 40.2056 45.6252 41.0013C45.6254 41.797 45.3095 42.5602 44.747 43.123C44.1845 43.6858 43.4214 44.002 42.6257 44.0022C41.83 44.0024 41.0668 43.6865 40.504 43.124L31.312 33.93L24.24 41L16 32.76V38C16 38.5304 15.7893 39.0391 15.4142 39.4142C15.0391 39.7893 14.5304 40 14 40C13.4696 40 12.9608 39.7893 12.5858 39.4142C12.2107 39.0391 12 38.5304 12 38V30C11.9994 29.4902 11.8042 28.9999 11.4543 28.6292C11.1044 28.2586 10.6261 28.0355 10.1172 28.0056C9.60832 27.9758 9.10723 28.1413 8.71632 28.4685C8.32542 28.7957 8.0742 29.2598 8.01399 29.766L7.99999 30V32C7.99999 32.5304 7.78928 33.0391 7.4142 33.4142C7.03913 33.7893 6.53042 34 5.99999 34C5.46956 34 4.96085 33.7893 4.58578 33.4142C4.2107 33.0391 3.99999 32.5304 3.99999 32V14.428C3.91691 10.2538 5.47362 6.21335 8.33599 3.17398L8.68399 2.81598V2.81598ZM9.16599 8.95598L9.06399 9.17598C8.46332 10.5029 8.10954 11.9282 8.01999 13.382L7.99999 14L7.99799 14.24C8.02205 17.2082 9.14828 20.0615 11.158 22.246L11.512 22.616L24.238 35.342L29.896 29.686L9.16599 8.95598V8.95598Z" fill="#174A21"/>
</svg>
