<svg width="1480" height="22" viewBox="0 0 1480 22" fill="none" xmlns="http://www.w3.org/2000/svg">
<path d="M0 0H3.46598V3.66667H0V0ZM5.7718 0H9.23778V3.66667H5.7718V0ZM5.7718 12.2273H9.23778V22H5.7718V12.2273ZM11.5581 12.2273H15.0241V22H11.5581V12.2273ZM3.46598 22L0 18.3333V9.77266L3.46598 6.106H11.5581V0H15.0241V6.106L11.5581 9.77266H3.46598V22ZM17.3299 0L20.7959 3.66667V18.3333L17.3299 22V0Z" fill="#937713"/>
<path d="M31.829 3.66667V12.2273L35.295 15.894H37.6153L41.0813 12.2273V3.66667H46.8531L43.3871 0H41.0813L37.6153 3.66667V12.2273H35.295V3.66667L31.829 0H29.5232L26.0572 3.66667H31.829ZM26.0572 6.106H29.5232V18.3333H43.3871V6.106H46.8531V18.3333L43.3871 22H29.5232L26.0572 18.3333V6.106Z" fill="#937713"/>
<path d="M52.1144 0H55.5804V3.66667H52.1144V0ZM69.4443 0H72.9103V3.66667H69.4443V0ZM57.8862 3.66667L61.3522 0H63.6725L67.1385 3.66667V9.77266H63.6725V3.66667H61.3522V9.77266H57.8862V3.66667ZM52.1144 6.106H55.5804V12.2273H57.8862L61.3522 15.894V18.3333L57.8862 22H55.5804L52.1144 18.3333H57.8862V15.894H55.5804L52.1144 12.2273V6.106ZM72.9103 6.106H69.4443V12.2273H67.1385L63.6725 15.894V18.3333L67.1385 22H69.4443L72.9103 18.3333H67.1385V15.894H69.4443L72.9103 12.2273V6.106Z" fill="#937713"/>
<path d="M78.1717 18.3333H81.6376V22H78.1717V18.3333ZM95.5016 18.3333H98.9675V22H95.5016V18.3333ZM78.1717 9.77266V3.66667L81.6376 0H83.9435L87.4094 3.66667V6.106H89.7298V3.66667L93.1957 0H95.5016L98.9675 3.66667V9.77266H95.5016V3.66667H93.1957V6.106L89.7298 9.77266H87.4094L83.9435 6.106V3.66667H81.6376V9.77266H78.1717ZM78.1717 12.2273H83.9435L87.4094 15.894V18.3333H89.7298V15.894L93.1957 12.2273H98.9675V15.894H93.1957V18.3333L89.7298 22H87.4094L83.9435 18.3333V15.894H78.1717V12.2273Z" fill="#937713"/>
<path d="M110.001 0H119.253V3.66667H110.001V0ZM125.025 18.3333L121.559 22H107.695L104.229 18.3333H125.025ZM104.229 3.66667L107.695 0V12.2273H110.001V9.77266L113.467 6.106H115.787L119.253 9.77266V12.2273H121.559V0L125.025 3.66667V12.2273L121.559 15.894H119.253L115.787 12.2273V9.77266H113.467V12.2273L110.001 15.894H107.695L104.229 12.2273V3.66667Z" fill="#937713"/>
<path d="M130.286 18.3333L133.752 22V6.106H130.286V18.3333ZM136.058 3.66667V22H139.524V3.66667L136.058 0H133.752L130.286 3.66667H136.058ZM147.616 0L151.082 3.66667V15.894H147.616V0ZM141.844 0H145.31V18.3333H151.082L147.616 22H145.31L141.844 18.3333V0Z" fill="#937713"/>
<path d="M177.139 18.3333L173.673 22H159.809L156.343 18.3333H177.139ZM162.115 6.106H165.581V9.77266H162.115V6.106ZM167.901 6.106H171.367V9.77266H167.901V6.106ZM173.673 15.894H177.139V3.66667L173.673 0V15.894ZM171.367 0V3.66667H159.809V12.2273H171.367V15.894H159.809L156.343 12.2273V3.66667L159.809 0H171.367Z" fill="#937713"/>
<path d="M182.401 12.2273H185.867V15.894H182.401V12.2273ZM182.401 18.3333H185.867V22H182.401V18.3333ZM199.73 12.2273H203.196V15.894H199.73V12.2273ZM199.73 18.3333H203.196V22H199.73V18.3333ZM182.401 9.77266V3.66667L185.867 0H188.172L191.638 3.66667V18.3333H193.959V3.66667L197.425 0H199.73L203.196 3.66667V9.77266H199.73V3.66667H197.425V18.3333L193.959 22H191.638L188.172 18.3333V3.66667H185.867V9.77266H182.401Z" fill="#937713"/>
<path d="M214.23 0H217.696V3.66667H214.23V0ZM220.016 0H223.482V3.66667H220.016V0ZM208.458 12.2273H211.924V22L208.458 18.3333V12.2273ZM225.788 12.2273H229.254V18.3333L225.788 22V12.2273ZM211.924 6.106H214.23L217.696 9.77266V18.3333H220.016V9.77266L223.482 6.106H225.788V0L229.254 3.66667V6.106L225.788 9.77266H223.482V18.3333L220.016 22H217.696L214.23 18.3333V9.77266H211.924L208.458 6.106V3.66667L211.924 0V6.106Z" fill="#937713"/>
<path d="M240.287 0H249.539V3.66667H240.287V0ZM240.287 6.106H249.539V9.77266H240.287V6.106ZM240.287 12.2273H249.539V15.894H240.287V12.2273ZM237.981 18.3333H251.845V0L255.311 3.66667V18.3333L251.845 22H237.981L234.515 18.3333V3.66667L237.981 0V18.3333Z" fill="#937713"/>
<path d="M260.572 3.66667L264.038 0V18.3333H277.902V3.66667H269.81V12.2273H275.596V15.894H269.81L266.344 12.2273V3.66667L269.81 0H277.902L281.368 3.66667V18.3333L277.902 22H264.038L260.572 18.3333V3.66667ZM272.13 6.106H275.596V9.77266H272.13V6.106Z" fill="#937713"/>
<path d="M292.401 6.106H301.653V9.77266H292.401V6.106ZM292.401 12.2273H301.653V15.894H292.401V12.2273ZM295.867 0V3.66667H290.095V18.3333H295.867V22H290.095L286.629 18.3333V3.66667L290.095 0H295.867ZM298.188 0V3.66667H303.959V18.3333H298.188V22H303.959L307.425 18.3333V3.66667L303.959 0H298.188Z" fill="#937713"/>
<path d="M312.687 3.66667L316.153 0H330.017L333.483 3.66667V18.3333L330.017 22V3.66667H312.687ZM312.687 6.106H324.245L327.711 9.77266V18.3333L324.245 22H316.153L312.687 18.3333H324.245V9.77266H312.687V6.106ZM312.687 12.2273H321.924V15.894H312.687V12.2273Z" fill="#937713"/>
<path d="M338.744 3.66667L342.21 0H356.074L359.54 3.66667V9.77266H356.074V3.66667H342.21V9.77266H338.744V3.66667ZM338.744 12.2273H342.21V18.3333H344.516V9.77266L347.982 6.106H350.302L353.768 9.77266V18.3333H356.074V12.2273H359.54V18.3333L356.074 22H353.768L350.302 18.3333V9.77266H347.982V18.3333L344.516 22H342.21L338.744 18.3333V12.2273Z" fill="#937713"/>
<path d="M364.801 3.66667L368.267 0H382.131L385.597 3.66667V18.3333L382.131 22V3.66667H368.267V12.2273H370.573V9.77266L374.039 6.106H376.359L379.825 9.77266V18.3333L376.359 22H368.267L364.801 18.3333H376.359V9.77266H374.039V12.2273L370.573 15.894H368.267L364.801 12.2273V3.66667Z" fill="#937713"/>
<path d="M390.858 0H394.324V3.66667H390.858V0ZM396.63 0H400.096V3.66667H396.63V0ZM402.416 0H405.882V3.66667H402.416V0ZM408.188 0H411.654V3.66667H408.188V0ZM394.324 22L390.858 18.3333V9.77266L394.324 6.106H408.188L411.654 9.77266V18.3333L408.188 22V9.77266H394.324V22ZM396.63 22V15.894L400.096 12.2273H402.416L405.882 15.894V22H402.416V15.894H400.096V22H396.63Z" fill="#937713"/>
<path d="M416.915 3.66667L420.381 0V6.106H422.687V3.66667L426.153 0H434.245L437.711 3.66667V18.3333L434.245 22V3.66667H426.153V6.106L422.687 9.77266H420.381L416.915 6.106V3.66667ZM428.474 6.106H431.94V18.3333L428.474 22H420.381L416.915 18.3333H428.474V6.106ZM416.915 12.2273H420.381V15.894H416.915V12.2273ZM422.687 12.2273H426.153V15.894H422.687V12.2273Z" fill="#937713"/>
<path d="M446.439 22L442.973 18.3333V3.66667L446.439 0V22ZM460.303 0L463.769 3.66667V18.3333L460.303 22V0ZM448.745 0H452.21V9.77266H448.745V0ZM448.745 12.2273H452.21V22H448.745V12.2273ZM454.531 12.2273H457.997V22H454.531V12.2273ZM454.531 9.77266H457.997V0H454.531V9.77266Z" fill="#937713"/>
<path d="M469.03 3.66667L472.496 0V12.2273H474.802V3.66667L478.268 0H486.36L489.826 3.66667H478.268V12.2273L474.802 15.894H472.496L469.03 12.2273V3.66667ZM480.588 6.106H489.826V9.77266H480.588V6.106ZM480.588 12.2273H489.826V15.894H480.588V12.2273ZM469.03 18.3333L472.496 22H486.36L489.826 18.3333H469.03Z" fill="#937713"/>
<path d="M495.087 3.66667L498.553 0H512.417L515.883 3.66667V12.2273L512.417 15.894H510.111L506.645 12.2273V6.106H510.111V12.2273H512.417V3.66667H495.087ZM498.553 18.3333V9.77266H500.859V15.894H504.325V9.77266L500.859 6.106H498.553L495.087 9.77266V18.3333L498.553 22H512.417L515.883 18.3333H498.553Z" fill="#937713"/>
<path d="M521.144 6.106H524.61V15.894H521.144V6.106ZM538.474 6.106H541.94V15.894H538.474V6.106ZM521.144 3.66667L524.61 0H526.916L530.382 3.66667V6.106H532.702V3.66667L536.168 0H538.474L541.94 3.66667H536.168V6.106L532.702 9.77266H530.382L526.916 6.106V3.66667H521.144ZM526.916 18.3333V15.894L530.382 12.2273H532.702L536.168 15.894V18.3333H541.94L538.474 22H536.168L532.702 18.3333V15.894H530.382V18.3333L526.916 22H524.61L521.144 18.3333H526.916Z" fill="#937713"/>
<path d="M547.202 3.66667L550.668 0H552.973L556.439 3.66667V6.106L552.973 9.77266H550.668V12.2273H552.973L556.439 15.894V18.3333L552.973 22H550.668L547.202 18.3333H552.973V15.894H550.668L547.202 12.2273V9.77266L550.668 6.106H552.973V3.66667H547.202ZM567.997 3.66667L564.531 0H562.226L558.76 3.66667V6.106L562.226 9.77266H564.531V12.2273H562.226L558.76 15.894V18.3333L562.226 22H564.531L567.997 18.3333H562.226V15.894H564.531L567.997 12.2273V9.77266L564.531 6.106H562.226V3.66667H567.997Z" fill="#937713"/>
<path d="M573.259 3.66667L576.725 0H590.589L594.055 3.66667V6.106L590.589 9.77266H582.497V22H579.031V9.77266L582.497 6.106H590.589V3.66667H576.725V22L573.259 18.3333V3.66667ZM584.817 12.2273H588.283V22H584.817V12.2273ZM590.589 12.2273H594.055V18.3333L590.589 22V12.2273Z" fill="#937713"/>
<path d="M599.316 0H602.782V3.66667H599.316V0ZM616.646 0H620.112V3.66667H616.646V0ZM605.088 0H608.554V6.106L605.088 9.77266H599.316V6.106H605.088V0ZM610.874 0H614.34V6.106H620.112V9.77266H614.34L610.874 6.106V0ZM602.782 22L599.316 18.3333V15.894L602.782 12.2273H616.646L620.112 15.894V18.3333L616.646 22V15.894H602.782V22ZM605.088 18.3333H614.34V22H605.088V18.3333Z" fill="#937713"/>
<path d="M625.373 3.66667L628.839 0H631.145L634.611 3.66667V6.106L631.145 9.77266H625.373V6.106H631.145V3.66667H625.373ZM636.931 0V12.2273H628.839L625.373 15.894V18.3333L628.839 22H642.703L646.169 18.3333V3.66667L642.703 0V18.3333H628.839V15.894H636.931L640.397 12.2273V0H636.931Z" fill="#937713"/>
<path d="M651.43 3.66667L654.896 0H668.76L672.226 3.66667H651.43ZM672.226 18.3333L668.76 22H654.896L651.43 18.3333H672.226ZM651.43 15.894H654.896V12.2273H651.43V15.894ZM657.202 15.894H660.668V9.77266L657.202 6.106H651.43V9.77266H657.202V15.894ZM662.989 15.894V9.77266L666.455 6.106H672.226V9.77266H666.455V15.894H662.989ZM668.76 12.2273H672.226V15.894H668.76V12.2273Z" fill="#937713"/>
<path d="M677.488 0H680.954V3.66667H677.488V0ZM694.818 18.3333H677.488L680.954 22H694.818L698.284 18.3333V3.66667L694.818 0V18.3333ZM686.16 0V9.159H677.488V12.8257H686.16L689.626 9.159V0H686.16Z" fill="#937713"/>
<path d="M707.011 0L703.545 3.66667V9.159L707.011 12.8257H720.875L724.341 9.159V3.66667L720.875 0V9.159H707.011V0ZM724.341 18.3333L720.875 22H707.011L703.545 18.3333H724.341ZM712.217 0H715.683V3.66667H712.217V0Z" fill="#937713"/>
<path d="M750.398 0V3.66667H746.932V0H750.398ZM733.068 18.3333V0L729.602 3.66667V18.3333L733.068 22H746.932L750.398 18.3333H733.068ZM750.398 9.159H741.74V0H738.274V9.159L741.74 12.8257H750.398V9.159Z" fill="#937713"/>
<path d="M755.659 18.3333L759.125 22H764.332L767.797 18.3333V3.66667L764.332 0H759.125L755.659 3.66667H764.332V18.3333H755.659ZM772.989 0L776.455 3.66667V18.3333L772.989 22V0ZM755.659 12.8257V9.159H759.125V12.8257H755.659Z" fill="#937713"/>
<path d="M802.512 0V3.66667H799.046V0H802.512ZM785.183 18.3333V0L781.717 3.66667V18.3333L785.183 22H799.046L802.512 18.3333H785.183ZM802.512 9.159H793.855V0H790.389V9.159L793.855 12.8257H802.512V9.159Z" fill="#937713"/>
<path d="M819.912 12.8257V9.159H816.446V12.8257H819.912ZM825.104 22L828.57 18.3333V9.159H825.104V18.3333H807.774L811.24 22H825.104ZM828.57 3.66667L825.104 0H811.24L807.774 3.66667V12.8257H811.24V3.66667H828.57Z" fill="#937713"/>
<path d="M833.831 18.3333L837.297 22H842.503L845.969 18.3333V3.66667L842.503 0H837.297L833.831 3.66667H842.503V18.3333H833.831ZM851.161 0L854.627 3.66667V18.3333L851.161 22V0ZM833.831 12.8257V9.159H837.297V12.8257H833.831Z" fill="#937713"/>
<path d="M872.026 12.8257V9.159H868.56V12.8257H872.026ZM877.218 22L880.684 18.3333V9.159H877.218V18.3333H859.888L863.354 22H877.218ZM880.684 3.66667L877.218 0H863.354L859.888 3.66667V12.8257H863.354V3.66667H880.684Z" fill="#937713"/>
<path d="M906.741 3.66667L903.275 0H898.084L894.618 3.66667V18.3333L898.084 22H903.275L906.741 18.3333H898.084V3.66667H906.741ZM889.411 22L885.945 18.3333V3.66667L889.411 0V22ZM906.741 9.159V12.8257H903.275V9.159H906.741Z" fill="#937713"/>
<path d="M924.141 12.8257V9.159H920.675V12.8257H924.141ZM929.333 22L932.799 18.3333V9.159H929.333V18.3333H912.003L915.469 22H929.333ZM932.799 3.66667L929.333 0H915.469L912.003 3.66667V12.8257H915.469V3.66667H932.799Z" fill="#937713"/>
<path d="M938.06 22V18.3333H941.526V22H938.06ZM955.39 3.66667V22L958.856 18.3333V3.66667L955.39 0H941.526L938.06 3.66667H955.39ZM938.06 12.8257H946.732V22H950.198V12.8257L946.732 9.159H938.06V12.8257Z" fill="#937713"/>
<path d="M964.117 0H967.583V3.66667H964.117V0ZM969.889 0H973.355V3.66667H969.889V0ZM969.889 12.2273H973.355V22H969.889V12.2273ZM975.675 12.2273H979.141V22H975.675V12.2273ZM967.583 22L964.117 18.3333V9.77266L967.583 6.106H975.675V0H979.141V6.106L975.675 9.77266H967.583V22ZM981.447 0L984.913 3.66667V18.3333L981.447 22V0Z" fill="#937713"/>
<path d="M995.946 3.66667V12.2273L999.412 15.894H1001.73L1005.2 12.2273V3.66667H1010.97L1007.5 0H1005.2L1001.73 3.66667V12.2273H999.412V3.66667L995.946 0H993.64L990.174 3.66667H995.946ZM990.174 6.106H993.64V18.3333H1007.5V6.106H1010.97V18.3333L1007.5 22H993.64L990.174 18.3333V6.106Z" fill="#937713"/>
<path d="M1016.23 0H1019.7V3.66667H1016.23V0ZM1033.56 0H1037.03V3.66667H1033.56V0ZM1022 3.66667L1025.47 0H1027.79L1031.26 3.66667V9.77266H1027.79V3.66667H1025.47V9.77266H1022V3.66667ZM1016.23 6.106H1019.7V12.2273H1022L1025.47 15.894V18.3333L1022 22H1019.7L1016.23 18.3333H1022V15.894H1019.7L1016.23 12.2273V6.106ZM1037.03 6.106H1033.56V12.2273H1031.26L1027.79 15.894V18.3333L1031.26 22H1033.56L1037.03 18.3333H1031.26V15.894H1033.56L1037.03 12.2273V6.106Z" fill="#937713"/>
<path d="M1042.29 18.3333H1045.75V22H1042.29V18.3333ZM1059.62 18.3333H1063.08V22H1059.62V18.3333ZM1042.29 9.77266V3.66667L1045.75 0H1048.06L1051.53 3.66667V6.106H1053.85V3.66667L1057.31 0H1059.62L1063.08 3.66667V9.77266H1059.62V3.66667H1057.31V6.106L1053.85 9.77266H1051.53L1048.06 6.106V3.66667H1045.75V9.77266H1042.29ZM1042.29 12.2273H1048.06L1051.53 15.894V18.3333H1053.85V15.894L1057.31 12.2273H1063.08V15.894H1057.31V18.3333L1053.85 22H1051.53L1048.06 18.3333V15.894H1042.29V12.2273Z" fill="#937713"/>
<path d="M1074.12 0H1083.37V3.66667H1074.12V0ZM1089.14 18.3333L1085.68 22H1071.81L1068.35 18.3333H1089.14ZM1068.35 3.66667L1071.81 0V12.2273H1074.12V9.77266L1077.58 6.106H1079.9L1083.37 9.77266V12.2273H1085.68V0L1089.14 3.66667V12.2273L1085.68 15.894H1083.37L1079.9 12.2273V9.77266H1077.58V12.2273L1074.12 15.894H1071.81L1068.35 12.2273V3.66667Z" fill="#937713"/>
<path d="M1094.4 18.3333L1097.87 22V6.106H1094.4V18.3333ZM1100.17 3.66667V22H1103.64V3.66667L1100.17 0H1097.87L1094.4 3.66667H1100.17ZM1111.73 0L1115.2 3.66667V15.894H1111.73V0ZM1105.96 0H1109.43V18.3333H1115.2L1111.73 22H1109.43L1105.96 18.3333V0Z" fill="#937713"/>
<path d="M1141.26 18.3333L1137.79 22H1123.93L1120.46 18.3333H1141.26ZM1126.23 6.106H1129.7V9.77266H1126.23V6.106ZM1132.02 6.106H1135.48V9.77266H1132.02V6.106ZM1137.79 15.894H1141.26V3.66667L1137.79 0V15.894ZM1135.48 0V3.66667H1123.93V12.2273H1135.48V15.894H1123.93L1120.46 12.2273V3.66667L1123.93 0H1135.48Z" fill="#937713"/>
<path d="M1146.52 12.2273H1149.98V15.894H1146.52V12.2273ZM1146.52 18.3333H1149.98V22H1146.52V18.3333ZM1163.85 12.2273H1167.31V15.894H1163.85V12.2273ZM1163.85 18.3333H1167.31V22H1163.85V18.3333ZM1146.52 9.77266V3.66667L1149.98 0H1152.29L1155.76 3.66667V18.3333H1158.08V3.66667L1161.54 0H1163.85L1167.31 3.66667V9.77266H1163.85V3.66667H1161.54V18.3333L1158.08 22H1155.76L1152.29 18.3333V3.66667H1149.98V9.77266H1146.52Z" fill="#937713"/>
<path d="M1178.35 0H1181.81V3.66667H1178.35V0ZM1184.13 0H1187.6V3.66667H1184.13V0ZM1172.57 12.2273H1176.04V22L1172.57 18.3333V12.2273ZM1189.9 12.2273H1193.37V18.3333L1189.9 22V12.2273ZM1176.04 6.106H1178.35L1181.81 9.77266V18.3333H1184.13V9.77266L1187.6 6.106H1189.9V0L1193.37 3.66667V6.106L1189.9 9.77266H1187.6V18.3333L1184.13 22H1181.81L1178.35 18.3333V9.77266H1176.04L1172.57 6.106V3.66667L1176.04 0V6.106Z" fill="#937713"/>
<path d="M1204.4 0H1213.66V3.66667H1204.4V0ZM1204.4 6.106H1213.66V9.77266H1204.4V6.106ZM1204.4 12.2273H1213.66V15.894H1204.4V12.2273ZM1202.1 18.3333H1215.96V0L1219.43 3.66667V18.3333L1215.96 22H1202.1L1198.63 18.3333V3.66667L1202.1 0V18.3333Z" fill="#937713"/>
<path d="M1224.69 3.66667L1228.16 0V18.3333H1242.02V3.66667H1233.93V12.2273H1239.71V15.894H1233.93L1230.46 12.2273V3.66667L1233.93 0H1242.02L1245.49 3.66667V18.3333L1242.02 22H1228.16L1224.69 18.3333V3.66667ZM1236.25 6.106H1239.71V9.77266H1236.25V6.106Z" fill="#937713"/>
<path d="M1256.52 6.106H1265.77V9.77266H1256.52V6.106ZM1256.52 12.2273H1265.77V15.894H1256.52V12.2273ZM1259.98 0V3.66667H1254.21V18.3333H1259.98V22H1254.21L1250.75 18.3333V3.66667L1254.21 0H1259.98ZM1262.3 0V3.66667H1268.08V18.3333H1262.3V22H1268.08L1271.54 18.3333V3.66667L1268.08 0H1262.3Z" fill="#937713"/>
<path d="M1276.8 3.66667L1280.27 0H1294.13L1297.6 3.66667V18.3333L1294.13 22V3.66667H1276.8ZM1276.8 6.106H1288.36L1291.83 9.77266V18.3333L1288.36 22H1280.27L1276.8 18.3333H1288.36V9.77266H1276.8V6.106ZM1276.8 12.2273H1286.04V15.894H1276.8V12.2273Z" fill="#937713"/>
<path d="M1302.86 3.66667L1306.33 0H1320.19L1323.66 3.66667V9.77266H1320.19V3.66667H1306.33V9.77266H1302.86V3.66667ZM1302.86 12.2273H1306.33V18.3333H1308.63V9.77266L1312.1 6.106H1314.42L1317.89 9.77266V18.3333H1320.19V12.2273H1323.66V18.3333L1320.19 22H1317.89L1314.42 18.3333V9.77266H1312.1V18.3333L1308.63 22H1306.33L1302.86 18.3333V12.2273Z" fill="#937713"/>
<path d="M1328.92 3.66667L1332.38 0H1346.25L1349.71 3.66667V18.3333L1346.25 22V3.66667H1332.38V12.2273H1334.69V9.77266L1338.16 6.106H1340.48L1343.94 9.77266V18.3333L1340.48 22H1332.38L1328.92 18.3333H1340.48V9.77266H1338.16V12.2273L1334.69 15.894H1332.38L1328.92 12.2273V3.66667Z" fill="#937713"/>
<path d="M1354.98 0H1358.44V3.66667H1354.98V0ZM1360.75 0H1364.21V3.66667H1360.75V0ZM1366.53 0H1370V3.66667H1366.53V0ZM1372.31 0H1375.77V3.66667H1372.31V0ZM1358.44 22L1354.98 18.3333V9.77266L1358.44 6.106H1372.31L1375.77 9.77266V18.3333L1372.31 22V9.77266H1358.44V22ZM1360.75 22V15.894L1364.21 12.2273H1366.53L1370 15.894V22H1366.53V15.894H1364.21V22H1360.75Z" fill="#937713"/>
<path d="M1381.03 3.66667L1384.5 0V6.106H1386.8V3.66667L1390.27 0H1398.36L1401.83 3.66667V18.3333L1398.36 22V3.66667H1390.27V6.106L1386.8 9.77266H1384.5L1381.03 6.106V3.66667ZM1392.59 6.106H1396.06V18.3333L1392.59 22H1384.5L1381.03 18.3333H1392.59V6.106ZM1381.03 12.2273H1384.5V15.894H1381.03V12.2273ZM1386.8 12.2273H1390.27V15.894H1386.8V12.2273Z" fill="#937713"/>
<path d="M1410.56 22L1407.09 18.3333V3.66667L1410.56 0V22ZM1424.42 0L1427.89 3.66667V18.3333L1424.42 22V0ZM1412.86 0H1416.33V9.77266H1412.86V0ZM1412.86 12.2273H1416.33V22H1412.86V12.2273ZM1418.65 12.2273H1422.11V22H1418.65V12.2273ZM1418.65 9.77266H1422.11V0H1418.65V9.77266Z" fill="#937713"/>
<path d="M1433.15 3.66667L1436.61 0V12.2273H1438.92V3.66667L1442.38 0H1450.48L1453.94 3.66667H1442.38V12.2273L1438.92 15.894H1436.61L1433.15 12.2273V3.66667ZM1444.71 6.106H1453.94V9.77266H1444.71V6.106ZM1444.71 12.2273H1453.94V15.894H1444.71V12.2273ZM1433.15 18.3333L1436.61 22H1450.48L1453.94 18.3333H1433.15Z" fill="#937713"/>
<path d="M1459.2 3.66667L1462.67 0H1476.53L1480 3.66667V12.2273L1476.53 15.894H1474.23L1470.76 12.2273V6.106H1474.23V12.2273H1476.53V3.66667H1459.2ZM1462.67 18.3333V9.77266H1464.98V15.894H1468.44V9.77266L1464.98 6.106H1462.67L1459.2 9.77266V18.3333L1462.67 22H1476.53L1480 18.3333H1462.67Z" fill="#937713"/>
</svg>
