<svg width="47" height="50" viewBox="0 0 47 50" fill="none" xmlns="http://www.w3.org/2000/svg">
<path d="M43.9012 37.5H40.5679V40.6173H43.9012V37.5Z" fill="#F5B16A"/>
<path d="M34.7344 0H15.9999V6.26543H34.7344V0Z" fill="#2F833A"/>
<path d="M16 3.11725H12.8827V9.35182H16V3.11725Z" fill="#2F833A"/>
<path d="M37.8828 3.11725H34.7655V9.35182H37.8828V3.11725Z" fill="#2F833A"/>
<path d="M22.2346 12.5H19.1173V15.6173H22.2346V12.5Z" fill="#2F833A"/>
<path d="M31.6175 12.5H28.5002V15.6173H31.6175V12.5Z" fill="#2F833A"/>
<path d="M40.6914 21.8827H34.7655V25H40.6914V21.8827Z" fill="#2F833A"/>
<path d="M40.9998 25H31.3394V28.1173H40.9998V25Z" fill="#2F833A"/>
<path d="M40.9999 28.1172H25.074V31.2345H40.9999V28.1172Z" fill="#2F833A"/>
<path d="M37.9445 31.2346H31.6173V34.3519H37.9445V31.2346Z" fill="#2F833A"/>
<path d="M28.4999 34.3827H25.074V37.5H28.4999V34.3827Z" fill="#2F833A"/>
<path d="M37.9445 37.5H31.6173V40.6173H37.9445V37.5Z" fill="#2F833A"/>
<path d="M37.4505 40.6173H25.074V43.7346H37.4505V40.6173Z" fill="#2F833A"/>
<path d="M40.9017 34.3827H37.9752V40.6302H40.9017V34.3827Z" fill="#2F833A"/>
<path d="M34.7344 6.26544H15.9999V12.5H34.7344V6.26544Z" fill="#7B1305"/>
<path d="M16 9.38269H12.8827V18.7654H16V9.38269Z" fill="#7B1305"/>
<path d="M22.2346 15.6172H19.1173V18.7345H22.2346V15.6172Z" fill="#7B1305"/>
<path d="M31.6175 15.6172H28.5002V18.7345H31.6175V15.6172Z" fill="#7B1305"/>
<path d="M37.8828 9.38269H34.7655V18.7654H37.8828V9.38269Z" fill="#7B1305"/>
<path d="M9.76536 6.26544H6.64807V18.7654H9.76536V6.26544Z" fill="#F5B16A"/>
<path d="M44.1174 6.26544H41.0001V18.7654H44.1174V6.26544Z" fill="#F5B16A"/>
<path d="M41 12.5H37.8827V21.8827H41V12.5Z" fill="#F5B16A"/>
<path d="M34.7346 12.5H31.6173V25H34.7346V12.5Z" fill="#F5B16A"/>
<path d="M12.8828 12.5H9.45691V18.7346H12.8828V12.5Z" fill="#F5B16A"/>
<path d="M19.1175 12.5H15.6915V18.7346H19.1175V12.5Z" fill="#F5B16A"/>
<path d="M28.5001 12.5H21.9569V18.7346H28.5001V12.5Z" fill="#F5B16A"/>
<path d="M37.8826 18.7346H25.074V21.8518H37.8826V18.7346Z" fill="#F5B16A"/>
<path d="M34.4566 12.5H31.3394V25H34.4566V12.5Z" fill="#F5B16A"/>
<path d="M31.3397 18.7346H28.1915V28.1173H31.3397V18.7346Z" fill="#F5B16A"/>
<path d="M28.1913 25H25.074V28.1173H28.1913V25Z" fill="#F5B16A"/>
<path d="M43.8088 6.26544H40.6915V18.7654H43.8088V6.26544Z" fill="#F5B16A"/>
<path d="M25.0741 18.7346H0.0740967V43.7346H25.0741V18.7346Z" fill="#CD6403"/>
<path d="M15.6915 21.8827H9.45691V43.7654H15.6915V21.8827Z" fill="#F5B16A"/>
<path d="M21.9257 28.1172H3.19116V34.3827H21.9257V28.1172Z" fill="#F5B16A"/>
<path d="M21.9567 43.7346H3.09863V46.8518H21.9567V43.7346Z" fill="#CD6403"/>
<path d="M18.8087 46.8827H6.30872V50H18.8087V46.8827Z" fill="#CD6403"/>
<path d="M43.8394 31.2346H37.9752V34.3519H43.8394V31.2346Z" fill="#F5B16A"/>
<path d="M46.926 34.3827H40.8766V37.5H46.926V34.3827Z" fill="#F5B16A"/>
<path d="M31.648 31.2346H25.074V34.3519H31.648V31.2346Z" fill="#7B1305"/>
<path d="M31.648 37.5H25.074V40.6173H31.648V37.5Z" fill="#7B1305"/>
<path d="M37.9446 34.3827H28.1915V37.5H37.9446V34.3827Z" fill="#7B1305"/>
<path d="M37.5742 43.7346H28.1915V46.8518H37.5742V43.7346Z" fill="#7B1305"/>
<path d="M28.1913 21.8827H25.074V25H28.1913V21.8827Z" fill="#7B1305"/>
<path d="M44.1175 18.7346H40.6915V31.2346H44.1175V18.7346Z" fill="#7B1305"/>
<path d="M46.9259 25H43.8086V34.3827H46.9259V25Z" fill="#7B1305"/>
</svg>
