<svg width="288" height="66" viewBox="0 0 288 66" fill="none" xmlns="http://www.w3.org/2000/svg">
<g clip-path="url(#clip0_93_557)">
<path fill-rule="evenodd" clip-rule="evenodd" d="M34.5671 35.7533H20.7544C19.2195 35.7533 18.7232 34.8127 18.7232 33.5286C18.7232 32.4881 18.7152 0.819336 18.7152 0.819336H13.8601V37.9899C13.8601 39.5496 15.213 40.5801 16.2096 40.5801H34.5671V35.7533Z" fill="#D14681"/>
<path fill-rule="evenodd" clip-rule="evenodd" d="M34.5671 42.4214V47.2582H10.0437C8.36463 47.2582 7.2019 46.006 7.2019 44.3865C7.21791 42.4853 7.2019 0.817383 7.2019 0.817383H12.0369V39.4159C12.0369 41.1093 12.7754 42.4214 14.8467 42.4214H34.5671Z" fill="#D14681"/>
<path fill-rule="evenodd" clip-rule="evenodd" d="M0.499756 0.818359H5.36281V45.7474C5.36281 47.375 6.17732 49.0944 8.55682 49.0944H34.5672V53.9192H6.27739C3.04936 53.9192 0.499756 51.2512 0.499756 48.0679V0.818359Z" fill="#D14681"/>
<path fill-rule="evenodd" clip-rule="evenodd" d="M20.5349 0.818359H25.396V27.201C25.396 28.1596 25.8322 29.0762 27.2151 29.0762H34.5677V33.917H23.0045C21.2253 33.917 20.5349 32.7907 20.5349 31.5046V0.818359Z" fill="#D14681"/>
<path fill-rule="evenodd" clip-rule="evenodd" d="M27.2374 18.9845H41.048C42.585 18.9845 43.0813 19.9271 43.0813 21.2112C43.0813 22.2477 43.0873 53.9165 43.0873 53.9165H47.9424V16.7479C47.9424 15.1902 46.5895 14.1577 45.5929 14.1577H27.2354L27.2374 18.9845Z" fill="#D14681"/>
<path fill-rule="evenodd" clip-rule="evenodd" d="M27.2344 12.3168V7.47998H51.7598C53.4368 7.47998 54.6016 8.73211 54.6016 10.3517C54.5836 12.2509 54.6016 53.9188 54.6016 53.9188H49.7665V15.3223C49.7665 13.6268 49.0261 12.3168 46.9588 12.3168H27.2344Z" fill="#D14681"/>
<path fill-rule="evenodd" clip-rule="evenodd" d="M61.3018 53.9187H56.4407V8.98969C56.4407 7.36412 55.6242 5.64468 53.2447 5.64468H27.2344V0.817871H55.5282C58.7542 0.817871 61.3018 3.48989 61.3018 6.67115V53.9187Z" fill="#D14681"/>
<path fill-rule="evenodd" clip-rule="evenodd" d="M41.2696 53.919H36.4066V27.5403C36.4066 26.5797 35.9683 25.6631 34.5894 25.6631H27.2368V20.8203H38.7961C40.5752 20.8203 41.2696 21.9506 41.2696 23.2347V53.919Z" fill="#D14681"/>
<path fill-rule="evenodd" clip-rule="evenodd" d="M172.848 30.9617C172.848 29.3041 174.102 27.9721 175.755 27.9721H180.1V23.0874H174.951C171.034 23.0874 167.94 26.2547 167.94 30.1549V53.9155H172.852L172.848 30.9617Z" fill="#D14681"/>
<path fill-rule="evenodd" clip-rule="evenodd" d="M96.5222 53.913H101.429V22.999H96.5222V53.913Z" fill="#D14681"/>
<path fill-rule="evenodd" clip-rule="evenodd" d="M195.801 26.3946C202.133 26.3946 207.276 31.5369 207.276 37.8495C207.276 44.1641 202.133 49.3064 195.801 49.3064C189.473 49.3064 184.33 44.1641 184.33 37.8495C184.33 31.5369 189.473 26.3946 195.801 26.3946ZM223.679 26.3946C230.011 26.3946 235.16 31.5369 235.16 37.8495C235.16 44.1641 230.011 49.3064 223.679 49.3064C217.351 49.3064 212.199 44.1641 212.199 37.8495C212.199 31.5369 217.351 26.3946 223.679 26.3946ZM251.56 26.3946C257.888 26.3946 263.033 31.5369 263.033 37.8495C263.033 44.1641 257.888 49.3064 251.56 49.3064C245.226 49.3064 240.083 44.1641 240.083 37.8495C240.083 31.5369 245.226 26.3946 251.56 26.3946ZM179.421 65.7679H184.372V49.5481C187.32 52.4198 191.35 54.1911 195.801 54.1911C201.693 54.1911 206.858 51.0858 209.74 46.4287C212.624 51.0858 217.791 54.1911 223.679 54.1911C229.564 54.1911 234.742 51.0858 237.617 46.4287C240.501 51.0858 245.663 54.1911 251.56 54.1911C260.604 54.1911 267.933 46.876 267.933 37.8495C267.933 28.823 260.604 21.5059 251.56 21.5059C245.663 21.5059 240.501 24.6132 237.617 29.2743C234.742 24.6132 229.564 21.5059 223.679 21.5059C217.791 21.5059 212.624 24.6152 209.74 29.2743C206.858 24.6152 201.693 21.5059 195.801 21.5059C186.758 21.5059 179.421 28.823 179.421 37.8495V65.7679Z" fill="#D14681"/>
<path fill-rule="evenodd" clip-rule="evenodd" d="M149.147 26.2249C154.09 26.2249 158.577 29.3602 160.218 34.2549H138.058C139.697 29.3602 144.202 26.2249 149.147 26.2249ZM149.147 54.0215C156.678 54.0215 163.112 48.959 164.883 41.6799H160.136C158.501 46.3449 154.104 49.4803 149.147 49.4803C143.121 49.4803 138.112 44.951 137.524 38.8022H165.347V37.8496C165.347 28.9329 158.077 21.6797 149.147 21.6797C140.209 21.6797 132.937 28.9329 132.937 37.8496C132.937 46.7643 140.209 54.0215 149.147 54.0215Z" fill="#D14681"/>
<path fill-rule="evenodd" clip-rule="evenodd" d="M122.123 53.9139L134.413 23H128.811L118.921 47.8809L109.031 23H103.436L115.721 53.9139H122.123Z" fill="#D14681"/>
<path fill-rule="evenodd" clip-rule="evenodd" d="M270.362 53.913H275.275V12.4028H270.362V53.913Z" fill="#D14681"/>
<path fill-rule="evenodd" clip-rule="evenodd" d="M79.6434 12.4067V46.1365C79.6594 47.814 80.63 49.124 82.5492 49.124H94.6108V53.9109L77.9903 53.9089C75.893 53.9089 74.6763 52.6308 74.6763 50.7815V12.4067H79.6434Z" fill="#D14681"/>
<path fill-rule="evenodd" clip-rule="evenodd" d="M284.118 15.4391C284.555 15.4391 284.839 15.2734 284.839 14.9139C284.839 14.5964 284.581 14.3967 284.218 14.3967H283.31V15.4391H284.118ZM282.747 13.9254H284.278C285.143 13.9254 285.429 14.4606 285.429 14.8301C285.429 15.3952 285.033 15.7986 284.449 15.8306V15.8545C284.745 15.9544 284.961 16.2539 285.247 16.7152L285.671 17.3902H284.993L284.681 16.849C284.24 16.0722 284.076 15.9184 283.652 15.9184H283.31V17.3902H282.747V13.9254ZM284.162 12.9169C282.675 12.9169 281.477 14.1151 281.477 15.6049C281.477 17.0907 282.675 18.3009 284.162 18.3009C285.651 18.3009 286.866 17.0907 286.866 15.6049C286.866 14.1151 285.651 12.9169 284.162 12.9169ZM284.162 18.8381C282.379 18.8381 280.934 17.3902 280.934 15.6049C280.934 13.8176 282.379 12.3877 284.162 12.3877C285.953 12.3877 287.402 13.8176 287.402 15.6049C287.402 17.3902 285.953 18.8381 284.162 18.8381Z" fill="#D14681"/>
<path fill-rule="evenodd" clip-rule="evenodd" d="M96.5164 17.3634H101.429V12.4067H96.5164V17.3634Z" fill="#D14681"/>
</g>
<defs>
<clipPath id="clip0_93_557">
<rect width="287" height="66" fill="white" transform="translate(0.5)"/>
</clipPath>
</defs>
</svg>
