<svg width="164" height="100" viewBox="0 0 164 100" fill="none" xmlns="http://www.w3.org/2000/svg">
<path d="M62.1533 52.1997L48.4066 64.3802L59.4291 68.6018L67.1415 55.6034C68.4111 56.3802 69.2285 56.8165 69.2285 56.8165L73.0779 51.5394C62.5797 46.9655 60.1302 40.9853 56.631 31.135C53.1319 21.2847 66.7793 5.10161 66.7793 5.10161C66.7793 5.10161 62.2629 6.86822 57.4795 11.8948L0.378418 0L1.42807 16.3589L52.0358 20.4496C51.5068 22.013 51.1378 23.6651 50.9093 25.3537L4.31502 25.8576L14.8128 42.2162L50.8371 33.2894C51.1201 35.814 51.6825 38.2507 52.4876 40.4311L22.1614 49.8682L36.5961 60.1582L56.767 47.3633C58.4175 49.1688 60.3284 50.8105 62.1533 52.1997ZM72.0356 22.0173L62.054 38.258H101.946L82 5.80443L72.0443 22.0033H91.7911L81.9088 38.0826L72.0356 22.0173ZM67.8279 64.644L64.6783 66.491L62.0537 76.2536L47.619 77.3086L44.4697 81.5303L44.732 85.4877L55.2302 100L51.0309 83.905L62.3164 82.8495L61.5291 88.6547L69.1399 82.058L67.303 78.3644L71.2396 67.5464L67.8279 64.644ZM163.622 0L106.522 11.8952C101.738 6.86855 97.2208 5.10194 97.2208 5.10194C97.2208 5.10194 110.869 21.2847 107.369 31.1353C103.87 40.9856 101.42 46.9659 90.9222 51.5398L94.7716 56.8168C94.7716 56.8168 95.589 56.3805 96.8585 55.6037L104.571 68.6022L115.593 64.3805L101.846 52.2001C103.671 50.8111 105.582 49.1691 107.233 47.3643L127.404 60.1592L141.838 49.8692L111.512 40.4321C112.317 38.2517 112.879 35.815 113.162 33.2904L149.186 42.2172L159.684 25.8586L113.09 25.3547C112.862 23.6658 112.493 22.0137 111.964 20.4506L162.571 16.3599L163.622 0ZM101.946 76.2532L99.3217 66.4907L96.1721 64.6437L92.7602 67.5461L96.6968 78.364L94.8602 82.0577L102.471 88.6543L101.683 82.8492L112.969 83.9046L108.77 99.9997L119.268 85.4874L119.53 81.53L116.381 77.3083L101.946 76.2532ZM85.6743 69.3934L92.7602 61.7413L82 43.5354L71.2396 61.7413L78.3258 69.3934L78.5884 72.2954L75.9638 74.1424L82 96.3061L88.0363 74.1424L85.4116 72.2954L85.6743 69.3934Z" fill="url(#paint0_linear_13_91)"/>
<defs>
<linearGradient id="paint0_linear_13_91" x1="82" y1="0" x2="82" y2="100" gradientUnits="userSpaceOnUse">
<stop stop-color="#A48824"/>
<stop offset="0.546875" stop-color="#D1B861"/>
<stop offset="1" stop-color="#937713"/>
</linearGradient>
</defs>
</svg>
