<svg width="573" height="233" viewBox="0 0 573 233" fill="none" xmlns="http://www.w3.org/2000/svg">
<g filter="url(#filter0_d_13_58)">
<path d="M350.354 99.2038H414L387.953 115.272C386.594 122.061 384.782 129.002 382.517 136.093C380.554 142.128 378.063 148.766 375.043 156.008C372.023 163.099 368.323 169.889 363.944 176.376L372.551 191.313L404.261 206.249H351.487L345.824 195.386C339.936 199.309 333.216 202.478 325.666 204.892C318.116 207.306 309.585 208.663 300.072 208.965C289.804 209.267 281.046 207.607 273.798 203.986C266.551 200.365 260.662 195.764 256.132 190.181C251.602 184.75 248.355 178.715 246.392 172.076C244.429 165.589 243.674 159.629 244.127 154.198C244.429 150.426 245.109 146.126 246.166 141.298C247.374 136.47 249.563 131.491 252.734 126.361C256.056 121.232 260.737 116.102 266.777 110.972C272.968 105.691 281.197 100.713 291.465 96.0354L289.2 91.5092C286.331 86.3794 283.915 81.0988 281.952 75.6673C280.14 71.1411 278.555 66.1622 277.196 60.7307C275.988 55.1484 275.535 49.7923 275.837 44.6626C276.139 39.6837 277.498 34.9311 279.914 30.4049C282.33 25.8787 285.501 21.9559 289.427 18.6367C293.504 15.3174 298.336 12.7526 303.923 10.9421C309.509 8.98069 315.625 8 322.269 8C330.423 8 336.991 9.28244 341.974 11.8473C347.108 14.4122 351.034 17.656 353.752 21.5787C356.621 25.5015 358.584 29.9523 359.641 34.9312C360.698 39.7591 361.226 44.5117 361.226 49.1888C361.226 54.6203 360.018 59.8255 357.602 64.8044C355.186 69.7832 352.091 74.4603 348.316 78.8357C344.692 83.0602 340.54 86.9829 335.859 90.6039C331.329 94.0741 326.95 97.0916 322.722 99.6564L356.47 163.024C358.131 160.308 359.867 157.215 361.679 153.745C363.642 150.124 365.379 146.277 366.889 142.203C368.55 138.129 369.833 133.83 370.739 129.303C371.645 124.626 372.023 119.949 371.872 115.272L350.354 99.2038ZM308.452 192.444C311.623 192.444 314.492 192.067 317.059 191.313C319.777 190.709 322.269 189.88 324.534 188.823C326.95 187.918 329.29 186.787 331.555 185.429C333.82 184.222 336.161 182.939 338.577 181.581L298.713 108.935C295.24 110.595 291.767 112.632 288.294 115.046C284.821 117.46 281.65 120.251 278.781 123.419C276.063 126.588 273.723 130.284 271.76 134.508C269.948 138.582 268.816 143.184 268.363 148.314C267.91 153.142 268.363 158.12 269.722 163.25C271.081 168.38 273.345 173.132 276.516 177.508C279.838 181.883 284.066 185.429 289.2 188.144C294.485 191.011 300.903 192.444 308.452 192.444ZM302.79 46.6994C302.79 49.7169 303.168 52.8852 303.923 56.2045C304.829 59.5237 305.81 62.843 306.867 66.1622C308.075 69.3306 309.283 72.4235 310.491 75.441C311.85 78.4585 313.133 81.1743 314.341 83.5883L316.38 86.9829C325.591 80.948 332.763 75.0638 337.897 69.3306C343.031 63.4465 345.598 56.3554 345.598 48.0572C345.598 42.9275 344.918 38.7785 343.559 35.6101C342.352 32.2908 340.691 29.726 338.577 27.9155C336.614 26.105 334.273 24.898 331.555 24.2945C328.988 23.5401 326.27 23.1629 323.401 23.1629C319.022 23.3138 315.474 24.219 312.756 25.8787C310.189 27.3874 308.151 29.2733 306.641 31.5365C305.131 33.7996 304.074 36.289 303.47 39.0048C303.017 41.7205 302.79 44.2854 302.79 46.6994ZM357.149 189.502L337.671 141.072L327.252 134.735L326.572 147.182L357.149 189.502ZM324.307 116.63L314.794 111.425L312.756 122.288L322.495 127.04L324.307 116.63ZM290.559 35.8364C289.2 37.7978 288.219 40.1363 287.615 42.8521C287.162 45.4169 286.935 48.2081 286.935 51.2256C286.935 54.0922 287.086 57.0343 287.388 60.0518C287.69 63.0693 288.068 65.9359 288.521 68.6517C289.276 72.8762 290.635 77.2515 292.598 81.7778C294.712 86.1531 297.128 90.9811 299.846 96.2617L310.264 103.277L311.397 90.6039C309.736 88.9443 308.075 86.9829 306.414 84.7198C304.904 82.7585 303.243 80.4199 301.431 77.7041C299.77 74.9884 298.185 71.8955 296.675 68.4253C296.373 67.8218 295.844 66.5394 295.089 64.578C294.334 62.6167 293.504 60.2027 292.598 57.336C291.843 54.3186 291.239 50.9993 290.786 47.3783C290.333 43.7573 290.257 39.91 290.559 35.8364ZM255.679 137.224L249.79 153.971L256.132 172.076L263.38 153.971L255.679 137.224Z" fill="url(#paint0_linear_13_58)"/>
</g>
<g filter="url(#filter1_dd_13_58)">
<path d="M49.364 42.8V44.004L54.524 44.778C60.63 45.724 61.06 48.476 54.782 57.506L31.39 90.96C31.82 87.004 31.992 83.65 32.25 77.888L33.282 53.292C33.54 46.756 34.916 45.036 40.248 44.606L47.214 44.004V42.8H14.792V44.004L19.006 44.606C23.908 45.294 24.682 46.756 24.51 53.292L22.704 104.032H24.338L56.674 58.28C63.554 48.476 66.564 45.896 74.218 44.692L78.69 44.004V42.8H49.364ZM104.858 86.918L103.31 90.272C99.0955 99.216 96.4295 102.14 94.1075 102.14C92.7315 102.14 91.7855 101.194 91.7855 99.646C91.7855 97.324 93.0755 92.766 94.9675 87.864L103.74 63.784H95.3115L92.0435 74.104H91.6995C92.2155 66.192 89.0335 62.58 83.0995 62.58C71.8335 62.58 60.3095 75.05 60.3095 87.262C60.3095 93.282 62.0295 97.84 64.9535 100.764C67.1895 103 69.7695 104.032 72.6075 104.032C77.5955 104.032 82.6695 100.334 86.5395 91.734L86.9695 91.906C86.0235 99.646 88.5175 104.032 93.0755 104.032C97.5475 104.032 100.558 100.334 104.944 90.96L106.492 87.606L104.858 86.918ZM73.3815 102.14C71.4895 102.14 70.1995 101.624 69.0815 100.506C68.0495 99.388 67.3615 97.582 67.3615 95.088C67.3615 91.648 68.3935 86.316 70.7155 79.952C73.1235 73.76 75.1875 69.976 77.5955 67.568C79.6595 65.59 81.7235 64.558 84.0455 64.558C88.0015 64.558 90.1515 66.966 90.1515 72.728C90.1515 75.566 89.2915 80.382 87.8295 84.252C82.7555 98.012 77.6815 102.14 73.3815 102.14ZM120.998 90.96L139.144 41.08H120.396V42.284L124.008 42.628C128.91 43.144 129.512 44.262 127.362 50.282L114.462 85.714C110.334 97.152 113.946 104.118 120.568 104.118C125.384 104.118 129.684 100.42 134.414 90.186L136.048 86.832L134.414 86.144L132.78 89.498C128.308 99.044 124.782 102.312 121.686 102.312C119.794 102.312 118.762 101.366 118.762 99.302C118.762 97.238 119.708 94.314 120.998 90.96ZM169.147 90.014C164.933 97.668 159.773 102.226 154.441 102.226C152.807 102.226 151.173 101.624 150.141 100.592C148.851 99.302 148.163 97.668 148.163 94.572C148.163 92.508 148.507 89.756 149.109 86.918C167.513 83.478 173.963 75.738 173.963 69.288C173.963 65.418 170.523 62.58 164.847 62.58C151.603 62.58 140.767 75.394 140.767 87.348C140.767 92.938 142.315 97.41 145.497 100.506C147.905 102.914 150.743 104.032 154.097 104.032C160.461 104.032 166.137 99.13 170.781 90.702L172.157 88.38L170.523 87.692L169.147 90.014ZM158.483 67.396C160.805 65.074 162.955 64.3 164.933 64.3C167.341 64.3 169.061 65.676 169.061 68.514C169.061 74.448 164.159 81.93 149.453 85.456C149.883 83.65 150.485 81.844 151.087 80.124C153.151 74.62 155.645 70.234 158.483 67.396ZM210.357 62.58C204.681 62.58 200.037 66.966 195.737 77.114L195.307 76.942C197.199 66.536 194.533 62.58 190.147 62.58C186.277 62.58 183.611 65.246 178.967 74.62L176.645 79.178L178.279 79.866L180.601 75.308C184.557 67.31 186.793 64.472 189.115 64.472C190.491 64.472 191.437 65.418 191.437 67.138C191.437 68.686 190.921 71.18 190.061 73.588L179.225 103H187.567L194.619 83.994C199.693 69.89 204.423 64.988 207.863 64.988C208.293 64.988 208.723 65.074 209.067 65.246C207.519 67.052 206.573 69.718 206.573 72.04C206.573 75.394 208.379 77.458 211.217 77.458C214.571 77.458 217.409 74.104 217.409 69.804C217.409 65.418 214.657 62.58 210.357 62.58ZM241.628 52.776C244.724 52.776 247.304 50.024 247.304 46.498C247.304 43.488 245.24 41.252 242.23 41.252C239.134 41.252 236.554 44.004 236.554 47.53C236.554 50.54 238.618 52.776 241.628 52.776ZM228.986 99.388C228.986 92.766 239.478 79.178 239.478 70.836C239.478 66.106 237.156 62.58 232.34 62.58C228.212 62.58 224.858 65.332 219.612 75.308L217.548 79.092L219.182 79.866L221.246 75.996C225.632 67.654 228.642 64.558 230.878 64.558C232.254 64.558 233.028 65.418 233.028 66.794C233.028 73.674 222.622 86.66 222.622 95.518C222.622 100.85 225.718 104.032 229.932 104.032C234.404 104.032 237.672 101.022 242.746 90.96L244.466 87.606L242.918 86.918L241.112 90.272C236.21 99.646 233.458 102.054 231.308 102.054C229.76 102.054 228.986 101.022 228.986 99.388ZM294.242 86.918L292.694 90.272C288.48 99.216 285.814 102.14 283.492 102.14C282.116 102.14 281.17 101.194 281.17 99.646C281.17 97.324 282.46 92.766 284.352 87.864L293.124 63.784H284.696L281.428 74.104H281.084C281.6 66.192 278.418 62.58 272.484 62.58C261.218 62.58 249.694 75.05 249.694 87.262C249.694 93.282 251.414 97.84 254.338 100.764C256.574 103 259.154 104.032 261.992 104.032C266.98 104.032 272.054 100.334 275.924 91.734L276.354 91.906C275.408 99.646 277.902 104.032 282.46 104.032C286.932 104.032 289.942 100.334 294.328 90.96L295.876 87.606L294.242 86.918ZM262.766 102.14C260.874 102.14 259.584 101.624 258.466 100.506C257.434 99.388 256.746 97.582 256.746 95.088C256.746 91.648 257.778 86.316 260.1 79.952C262.508 73.76 264.572 69.976 266.98 67.568C269.044 65.59 271.108 64.558 273.43 64.558C277.386 64.558 279.536 66.966 279.536 72.728C279.536 75.566 278.676 80.382 277.214 84.252C272.14 98.012 267.066 102.14 262.766 102.14Z" fill="white"/>
</g>
<g filter="url(#filter2_dd_13_58)">
<path d="M356.082 154.8V156.004L361.242 156.606C366.316 157.208 366.832 158.584 364.51 164.948L350.148 204.852C347.912 211.216 346.278 212.678 340.946 213.194L334.668 213.796V215H384.462L395.642 188.168L394.524 187.91L386.44 201.24C380.162 211.56 377.668 213.28 368.896 213.28H360.812C357.544 213.28 356.684 211.99 358.06 208.12L366.058 185.846H370.444C377.238 185.846 378.27 187.996 376.464 197.8L375.69 202.444H376.894L389.45 167.442H388.246L385.666 172.086C380.334 182.148 377.84 184.04 371.132 184.04H366.746L376.636 156.52H387.214C397.19 156.52 398.91 157.896 397.792 170.108L396.674 181.374L397.964 181.202L405.704 154.8H356.082ZM434.543 174.58C428.867 174.58 424.223 178.966 419.923 189.114L419.493 188.942C421.385 178.536 418.719 174.58 414.333 174.58C410.463 174.58 407.797 177.246 403.153 186.62L400.831 191.178L402.465 191.866L404.787 187.308C408.743 179.31 410.979 176.472 413.301 176.472C414.677 176.472 415.623 177.418 415.623 179.138C415.623 180.686 415.107 183.18 414.247 185.588L403.411 215H411.753L418.805 195.994C423.879 181.89 428.609 176.988 432.049 176.988C432.479 176.988 432.909 177.074 433.253 177.246C431.705 179.052 430.759 181.718 430.759 184.04C430.759 187.394 432.565 189.458 435.403 189.458C438.757 189.458 441.595 186.104 441.595 181.804C441.595 177.418 438.843 174.58 434.543 174.58ZM465.813 164.776C468.909 164.776 471.489 162.024 471.489 158.498C471.489 155.488 469.425 153.252 466.415 153.252C463.319 153.252 460.739 156.004 460.739 159.53C460.739 162.54 462.803 164.776 465.813 164.776ZM453.171 211.388C453.171 204.766 463.663 191.178 463.663 182.836C463.663 178.106 461.341 174.58 456.525 174.58C452.397 174.58 449.043 177.332 443.797 187.308L441.733 191.092L443.367 191.866L445.431 187.996C449.817 179.654 452.827 176.558 455.063 176.558C456.439 176.558 457.213 177.418 457.213 178.794C457.213 185.674 446.807 198.66 446.807 207.518C446.807 212.85 449.903 216.032 454.117 216.032C458.589 216.032 461.857 213.022 466.931 202.96L468.651 199.606L467.103 198.918L465.297 202.272C460.395 211.646 457.643 214.054 455.493 214.054C453.945 214.054 453.171 213.022 453.171 211.388ZM498.39 188.684C498.39 192.382 500.712 194.188 503.378 194.188C506.474 194.188 509.312 190.92 509.312 186.018C509.312 179.568 504.324 174.58 497.272 174.58C484.63 174.58 474.138 186.964 474.138 198.66C474.138 204.078 476.116 208.894 479.384 212.076C482.222 214.914 485.146 216.032 488.414 216.032C495.294 216.032 501.142 210.614 505.356 202.53L506.818 199.692L505.184 199.004L503.722 201.842C499.852 209.238 494.606 214.312 488.844 214.312C486.78 214.312 485.06 213.71 483.77 212.42C482.394 211.044 481.62 208.894 481.62 205.884C481.62 202.1 482.738 196.854 484.544 192.038C486.522 186.534 488.672 182.148 491.166 179.74C493.746 177.16 496.154 176.3 498.39 176.3C500.626 176.3 503.292 177.246 505.012 179.396C501.056 181.288 498.39 185.33 498.39 188.684ZM553.566 202.272C549.094 211.216 545.912 213.968 543.934 213.968C542.644 213.968 541.87 213.28 541.87 211.904C541.87 211.13 542.214 209.754 542.73 207.346C543.16 205.368 543.418 203.992 543.418 202.53C543.418 197.972 540.58 194.446 536.022 192.382L536.108 191.952C539.72 190.834 541.784 189.028 545.31 183.094C547.03 180.17 548.922 177.762 550.9 177.504C549.696 179.052 548.922 181.202 548.922 183.094C548.922 185.502 550.728 187.136 553.05 187.136C556.06 187.136 558.726 184.126 558.726 180.17C558.726 176.988 556.318 174.838 553.05 174.838C548.922 174.838 546.342 177.504 543.418 182.406C539.634 188.77 536.624 191.092 531.894 191.092H529.142L543.074 153.08H524.326V154.284L527.938 154.628C532.84 155.144 533.528 156.262 531.292 162.282L512.028 215H520.37L528.454 192.898H531.55C535.506 192.898 537.312 194.79 537.312 197.628C537.312 198.918 536.796 200.552 535.85 202.96C534.99 205.196 534.388 207.088 534.388 208.894C534.388 213.108 537.484 216.032 542.3 216.032C546.944 216.032 550.212 212.936 555.2 202.96L556.92 199.606L555.286 198.918L553.566 202.272Z" fill="white"/>
</g>
<defs>
<filter id="filter0_d_13_58" x="232" y="0" width="194" height="225" filterUnits="userSpaceOnUse" color-interpolation-filters="sRGB">
<feFlood flood-opacity="0" result="BackgroundImageFix"/>
<feColorMatrix in="SourceAlpha" type="matrix" values="0 0 0 0 0 0 0 0 0 0 0 0 0 0 0 0 0 0 127 0" result="hardAlpha"/>
<feOffset dy="4"/>
<feGaussianBlur stdDeviation="6"/>
<feComposite in2="hardAlpha" operator="out"/>
<feColorMatrix type="matrix" values="0 0 0 0 0 0 0 0 0 0 0 0 0 0 0 0 0 0 0.25 0"/>
<feBlend mode="normal" in2="BackgroundImageFix" result="effect1_dropShadow_13_58"/>
<feBlend mode="normal" in="SourceGraphic" in2="effect1_dropShadow_13_58" result="shape"/>
</filter>
<filter id="filter1_dd_13_58" x="2.79199" y="29.08" width="305.084" height="87.038" filterUnits="userSpaceOnUse" color-interpolation-filters="sRGB">
<feFlood flood-opacity="0" result="BackgroundImageFix"/>
<feColorMatrix in="SourceAlpha" type="matrix" values="0 0 0 0 0 0 0 0 0 0 0 0 0 0 0 0 0 0 127 0" result="hardAlpha"/>
<feOffset/>
<feGaussianBlur stdDeviation="6"/>
<feComposite in2="hardAlpha" operator="out"/>
<feColorMatrix type="matrix" values="0 0 0 0 0 0 0 0 0 0 0 0 0 0 0 0 0 0 0.4 0"/>
<feBlend mode="normal" in2="BackgroundImageFix" result="effect1_dropShadow_13_58"/>
<feColorMatrix in="SourceAlpha" type="matrix" values="0 0 0 0 0 0 0 0 0 0 0 0 0 0 0 0 0 0 127 0" result="hardAlpha"/>
<feOffset dy="4"/>
<feGaussianBlur stdDeviation="2"/>
<feComposite in2="hardAlpha" operator="out"/>
<feColorMatrix type="matrix" values="0 0 0 0 0 0 0 0 0 0 0 0 0 0 0 0 0 0 0.25 0"/>
<feBlend mode="normal" in2="effect1_dropShadow_13_58" result="effect2_dropShadow_13_58"/>
<feBlend mode="normal" in="SourceGraphic" in2="effect2_dropShadow_13_58" result="shape"/>
</filter>
<filter id="filter2_dd_13_58" x="324.668" y="143.08" width="248.058" height="86.952" filterUnits="userSpaceOnUse" color-interpolation-filters="sRGB">
<feFlood flood-opacity="0" result="BackgroundImageFix"/>
<feColorMatrix in="SourceAlpha" type="matrix" values="0 0 0 0 0 0 0 0 0 0 0 0 0 0 0 0 0 0 127 0" result="hardAlpha"/>
<feOffset dx="2" dy="2"/>
<feGaussianBlur stdDeviation="6"/>
<feComposite in2="hardAlpha" operator="out"/>
<feColorMatrix type="matrix" values="0 0 0 0 0 0 0 0 0 0 0 0 0 0 0 0 0 0 0.4 0"/>
<feBlend mode="normal" in2="BackgroundImageFix" result="effect1_dropShadow_13_58"/>
<feColorMatrix in="SourceAlpha" type="matrix" values="0 0 0 0 0 0 0 0 0 0 0 0 0 0 0 0 0 0 127 0" result="hardAlpha"/>
<feOffset dy="4"/>
<feGaussianBlur stdDeviation="2"/>
<feComposite in2="hardAlpha" operator="out"/>
<feColorMatrix type="matrix" values="0 0 0 0 0 0 0 0 0 0 0 0 0 0 0 0 0 0 0.25 0"/>
<feBlend mode="normal" in2="effect1_dropShadow_13_58" result="effect2_dropShadow_13_58"/>
<feBlend mode="normal" in="SourceGraphic" in2="effect2_dropShadow_13_58" result="shape"/>
</filter>
<linearGradient id="paint0_linear_13_58" x1="329" y1="8" x2="329" y2="209" gradientUnits="userSpaceOnUse">
<stop stop-color="#A48824"/>
<stop offset="0.546875" stop-color="#D1B861"/>
<stop offset="1" stop-color="#937713"/>
</linearGradient>
</defs>
</svg>
