<svg width="180" height="180" viewBox="0 0 180 180" fill="none" xmlns="http://www.w3.org/2000/svg">
<rect x="1" y="1" width="178" height="178" rx="89" fill="#937713" stroke="#E2CE9C" stroke-width="2"/>
<path d="M108.75 45C108.996 45.0001 109.24 44.9517 109.468 44.8576C109.695 44.7634 109.902 44.6253 110.076 44.4511C110.25 44.277 110.388 44.0702 110.483 43.8427C110.577 43.6151 110.625 43.3713 110.625 43.125V39.375C110.625 38.8777 110.427 38.4008 110.076 38.0492C109.724 37.6975 109.247 37.5 108.75 37.5C108.253 37.5 107.776 37.6975 107.424 38.0492C107.073 38.4008 106.875 38.8777 106.875 39.375V43.125C106.875 43.3713 106.923 43.6151 107.017 43.8427C107.112 44.0702 107.25 44.277 107.424 44.4511C107.598 44.6253 107.805 44.7634 108.032 44.8576C108.26 44.9517 108.504 45.0001 108.75 45V45ZM98.0493 44.4507C98.4021 44.7964 98.8771 44.989 99.371 44.9865C99.865 44.984 100.338 44.7867 100.687 44.4374C101.037 44.0881 101.234 43.6151 101.236 43.1212C101.239 42.6272 101.046 42.1522 100.701 41.7994L96.9506 38.0494C96.5978 37.7037 96.1228 37.5112 95.6289 37.5137C95.1349 37.5162 94.6619 37.7135 94.3126 38.0628C93.9634 38.412 93.766 38.8851 93.7636 39.379C93.7611 39.8729 93.9536 40.3479 94.2993 40.7007L98.0493 44.4507ZM118.125 45C118.371 45.0003 118.615 44.9519 118.843 44.8577C119.07 44.7634 119.277 44.6251 119.451 44.4507L123.201 40.7007C123.546 40.3479 123.739 39.8729 123.737 39.379C123.734 38.8851 123.537 38.412 123.187 38.0628C122.838 37.7135 122.365 37.5162 121.871 37.5137C121.377 37.5112 120.902 37.7037 120.549 38.0494L116.799 41.7994C116.537 42.0617 116.359 42.3957 116.287 42.7594C116.214 43.123 116.251 43.4999 116.393 43.8425C116.535 44.185 116.775 44.4778 117.084 44.6838C117.392 44.8899 117.754 44.9999 118.125 45ZM67.1667 66.4197C67.1896 66.1744 67.1639 65.927 67.0911 65.6917C67.0184 65.4563 66.9 65.2376 66.7427 65.048C66.5854 64.8584 66.3923 64.7017 66.1745 64.5867C65.9566 64.4717 65.7182 64.4008 65.4729 64.378C65.2277 64.3551 64.9803 64.3808 64.7449 64.4536C64.5096 64.5263 64.2909 64.6447 64.1013 64.802C63.9117 64.9593 63.755 65.1524 63.64 65.3703C63.525 65.5881 63.4541 65.8265 63.4313 66.0718C62.9513 69.0371 61.7237 71.8312 59.8644 74.1905C59.5803 74.5989 59.4701 75.1035 59.558 75.5931C59.6459 76.0828 59.9247 76.5175 60.3331 76.8016C60.7415 77.0857 61.2461 77.1959 61.7357 77.108C62.2254 77.0201 62.6601 76.7413 62.9442 76.3329C65.1543 73.4311 66.6056 70.0238 67.1667 66.4197V66.4197Z" fill="#F4F0E7"/>
<path d="M117.275 76.1335L127.125 62.9993C127.142 62.9768 127.138 62.9464 127.154 62.9233C127.172 62.8976 127.203 62.8869 127.22 62.8601C127.306 62.6857 127.364 62.4986 127.391 62.306C127.481 62.1031 127.52 61.8814 127.504 61.6601C127.489 61.4389 127.419 61.2248 127.302 61.0364L121.677 49.7864C121.514 49.4874 121.27 49.2399 120.974 49.0716C120.678 48.9033 120.341 48.8208 120 48.8333V48.75H97.5V48.8333C97.1596 48.8208 96.8223 48.9033 96.5261 49.0716C96.2298 49.24 95.9863 49.4875 95.8228 49.7864L90.1978 61.0364C90.0808 61.2248 90.0115 61.4389 89.996 61.6602C89.9805 61.8814 90.0192 62.1031 90.1088 62.306C90.1359 62.4987 90.1938 62.6858 90.2802 62.8601C90.2967 62.8869 90.3283 62.8976 90.3461 62.9233C90.3619 62.9464 90.3585 62.9766 90.3754 62.9993L100.256 76.1751C96.6276 77.1117 93.1826 78.653 90.066 80.7344C86.1855 78.1197 81.8017 76.3443 77.1953 75.5219C76.706 75.4355 76.2025 75.5469 75.7953 75.8316C75.3881 76.1163 75.1106 76.551 75.0237 77.0402C74.9368 77.5294 75.0477 78.0331 75.332 78.4405C75.6163 78.848 76.0507 79.126 76.5398 79.2133C81.0357 80.0129 85.2883 81.8332 88.9704 84.5341C88.996 84.5509 89.0162 84.5749 89.0427 84.5904C90.8804 85.9419 92.5578 87.4988 94.0422 89.231L94.0428 89.233L94.0605 89.2511C98.488 94.429 101.019 100.961 101.235 107.771C101.451 114.58 99.3402 121.26 95.2502 126.708C94.2242 125.937 93.2657 125.079 92.3852 124.145C94.5037 121.286 96.0134 118.023 96.821 114.558C97.6286 111.093 97.7168 107.499 97.0803 103.998C96.4438 100.497 95.0961 97.1642 93.1204 94.205C91.1448 91.2458 88.5832 88.7232 85.5939 86.7932L85.5816 86.7776C85.5408 86.7433 85.4898 86.7343 85.447 86.7039C80.1383 83.2127 73.7195 81.8239 67.4424 82.8086C78.0289 69.1709 74.2578 60.4315 72.6909 57.9147C71.4664 55.8374 69.5899 54.2228 67.3532 53.3218C65.1165 52.4207 62.6449 52.2838 60.3223 52.9321C58.7808 53.4806 57.3948 54.3939 56.2827 55.594C55.1706 56.7941 54.3653 58.2455 53.9356 59.8242C52.6527 58.8089 51.1433 58.1187 49.5361 57.8126C47.9289 57.5066 46.2715 57.5936 44.7052 58.0664C42.4496 58.9205 40.5399 60.4967 39.2737 62.5495C38.0075 64.6023 37.456 67.0163 37.7051 69.4153C37.9392 72.4082 40.1257 81.8866 57.3473 86.5245C51.5145 90.1303 47.3283 95.8795 45.6874 102.538C44.0464 109.196 45.0818 116.232 48.571 122.135C52.0602 128.038 57.7251 132.338 64.3492 134.111C70.9734 135.884 78.0287 134.988 84 131.617C84.8747 132.569 85.803 133.47 86.7803 134.315C82.1124 137.2 76.737 138.735 71.25 138.75C65.4772 138.75 59.8269 137.085 54.977 133.953C50.1272 130.822 46.2839 126.358 43.9081 121.097C41.5324 115.835 40.7252 110 41.5834 104.291C42.4416 98.5827 44.9287 93.2429 48.7463 88.9125C49.0755 88.5396 49.2431 88.0511 49.2122 87.5545C49.1813 87.058 48.9544 86.5941 48.5815 86.2648C48.2085 85.9356 47.72 85.768 47.2235 85.7989C46.727 85.8298 46.263 86.0566 45.9338 86.4296C40.4874 92.5632 37.4652 100.473 37.434 108.675C37.4028 116.878 40.3646 124.81 45.7642 130.985C51.1638 137.16 58.6303 141.153 66.7638 142.216C74.8973 143.279 83.1393 141.339 89.9444 136.759C94.0171 139.499 98.6387 141.317 103.487 142.086C108.335 142.855 113.292 142.556 118.013 141.211C122.733 139.867 127.103 137.507 130.818 134.299C134.533 131.09 137.503 127.11 139.52 122.635C141.537 118.16 142.553 113.299 142.498 108.391C142.442 103.483 141.316 98.6457 139.198 94.2177C137.08 89.7898 134.02 85.8775 130.234 82.754C126.447 79.6305 122.025 77.3711 117.275 76.1336L117.275 76.1335ZM41.4441 69.1223C41.2548 67.5598 41.5865 65.9785 42.3877 64.6238C43.1889 63.2691 44.4148 62.2166 45.8753 61.6298C46.4118 61.4536 46.9731 61.3646 47.5379 61.3662C49.39 61.4536 51.1508 62.1967 52.5055 63.4627C52.8886 63.7858 53.3478 64.0058 53.8396 64.1019C54.3315 64.198 54.8397 64.1671 55.3162 64.012C55.7922 63.8562 56.2199 63.5802 56.558 63.2106C56.8961 62.8411 57.1331 62.3906 57.2461 61.9026C57.4213 60.7092 57.9054 59.5823 58.6506 58.6337C59.3958 57.6852 60.3761 56.948 61.4942 56.4954C63.0183 56.1037 64.6289 56.2247 66.0774 56.8396C67.5259 57.4545 68.7318 58.5291 69.5087 59.8975C70.8509 62.0545 74.1871 70.0654 61.7982 83.7415C43.7055 80.0813 41.6419 71.6565 41.4441 69.1223ZM113.214 75.3003C113.008 75.2713 112.795 75.2605 112.588 75.2346L112.566 75.2314L115.429 63.75H121.875L113.214 75.3003ZM108.704 75.001C108.704 74.9365 108.702 74.872 108.695 74.8078L105.938 63.75H111.562L108.805 74.8078C108.799 74.8719 108.796 74.9364 108.797 75.0009L108.75 75L108.704 75.001ZM114.375 57.6819L111.784 52.5H116.966L114.375 57.6819ZM111.341 60H106.159L108.75 54.8181L111.341 60ZM103.125 57.6819L100.534 52.5H105.716L103.125 57.6819ZM122.591 60H117.409L120 54.8181L122.591 60ZM97.5 54.8181L100.091 60H94.9091L97.5 54.8181ZM102.071 63.75L104.934 75.2321C104.72 75.2587 104.499 75.2701 104.286 75.3003L95.625 63.75H102.071ZM105 108.75C105.004 101.573 102.716 94.5833 98.4684 88.7984C101.897 87.0269 105.724 86.1678 109.58 86.3039C113.437 86.4399 117.194 87.5664 120.489 89.5751C123.784 91.5837 126.506 94.4068 128.394 97.7725C130.282 101.138 131.272 104.933 131.268 108.792C131.264 112.651 130.267 116.445 128.372 119.807C126.478 123.169 123.75 125.986 120.45 127.988C117.151 129.99 113.392 131.109 109.535 131.238C105.679 131.366 101.854 130.499 98.4286 128.721C102.688 122.933 104.99 115.937 105 108.75ZM89.9575 121.091C87.5253 117.431 86.2349 113.131 86.2501 108.737C86.2653 104.343 87.5854 100.052 90.0429 96.4096C92.475 100.069 93.7653 104.369 93.7501 108.763C93.7349 113.157 92.4148 117.448 89.9575 121.091V121.091ZM71.25 131.25C67.8397 131.256 64.4725 130.488 61.403 129.001C58.3335 127.515 55.6419 125.351 53.5318 122.672C51.4216 119.993 49.9481 116.869 49.2226 113.537C48.4971 110.204 48.5386 106.751 49.344 103.437C50.1493 100.123 51.6974 97.0355 53.8713 94.4078C56.0452 91.7801 58.7879 89.6809 61.8923 88.269C64.9966 86.8571 68.3813 86.1693 71.7905 86.2576C75.1997 86.346 78.5442 87.2081 81.5712 88.7789C77.3027 94.5547 74.9995 101.547 75 108.729C75.0006 115.911 77.3048 122.903 81.5742 128.679C78.39 130.354 74.8483 131.237 71.25 131.25V131.25ZM108.75 138.75C103.181 138.756 97.7205 137.21 92.9811 134.285C88.2417 131.361 84.411 127.174 81.9187 122.193C79.4263 117.213 78.371 111.637 78.8711 106.09C79.3711 100.544 81.4068 95.2463 84.7497 90.7922C85.7755 91.5638 86.7338 92.4211 87.6144 93.355C83.802 98.6058 82.0639 105.08 82.7338 111.534C83.4036 117.988 86.4343 123.967 91.2437 128.323C96.0532 132.679 102.302 135.105 108.791 135.134C115.28 135.164 121.551 132.795 126.4 128.483C131.248 124.171 134.333 118.22 135.062 111.772C135.79 105.324 134.111 98.8344 130.347 93.5492C126.582 88.2639 120.998 84.5557 114.666 83.1367C108.334 81.7177 101.701 82.6879 96.0413 85.8609C95.1698 84.9063 94.2441 84.0027 93.2688 83.1544C96.4914 81.1655 100.066 79.8135 103.798 79.1716C104.066 79.127 104.339 79.1121 104.607 79.0727C105.979 78.8706 107.363 78.7627 108.75 78.75C109.609 78.75 110.453 78.8079 111.293 78.8789C111.86 78.9334 112.423 79.0004 112.98 79.0837C120.492 80.1496 127.321 84.0243 132.09 89.9265C136.858 95.8288 139.212 103.32 138.675 110.888C138.139 118.457 134.752 125.541 129.199 130.712C123.645 135.882 116.338 138.755 108.75 138.75V138.75Z" fill="#F4F0E7"/>
</svg>
