<svg width="180" height="180" viewBox="0 0 180 180" fill="none" xmlns="http://www.w3.org/2000/svg">
<rect x="1" y="1" width="178" height="178" rx="89" fill="#937713" stroke="#E2CE9C" stroke-width="2"/>
<path fill-rule="evenodd" clip-rule="evenodd" d="M63 82.5C63 82.5 65.0407 82.2245 68 81.4353C75.805 79.3538 90 73.6995 90 60.1043C90 51.7624 83.2377 45 74.8957 45H60.1043C51.7624 45 45 51.7624 45 60.1043C45 68.446 51.7624 75.2082 60.1043 75.2082H63V82.5ZM68 70.2082H60.1043C54.5238 70.2082 50 65.6845 50 60.1043C50 54.5238 54.5238 50 60.1043 50H74.8957C80.4762 50 85 54.5238 85 60.1043C85 66.5615 80.4805 70.8625 74.328 73.8298C72.1475 74.8813 69.938 75.6675 68 76.2415V70.2082ZM66.25 110C71.775 110 76.25 105.525 76.25 100C76.25 94.475 71.775 90 66.25 90C60.725 90 56.25 94.475 56.25 100C56.25 105.525 60.725 110 66.25 110ZM71.25 100C71.25 102.763 69.0135 105 66.25 105C63.4865 105 61.25 102.763 61.25 100C61.25 97.2365 63.4865 95 66.25 95C69.0135 95 71.25 97.2365 71.25 100ZM45 125.667C45 118.573 59.1578 115 66.25 115C73.3422 115 87.5 118.573 87.5 125.667V135H45V125.667ZM50 130V125.667C50 125.644 49.9998 125.592 50.0649 125.466C50.1444 125.312 50.3283 125.039 50.7213 124.675C51.5447 123.912 52.9244 123.079 54.831 122.312C58.6532 120.775 63.3315 120 66.25 120C69.1685 120 73.8468 120.775 77.669 122.312C79.5755 123.079 80.9553 123.912 81.7788 124.675C82.1718 125.039 82.3555 125.312 82.435 125.466C82.5003 125.592 82.5 125.644 82.5 125.667V130H50ZM123.75 100C123.75 105.525 119.275 110 113.75 110C108.225 110 103.75 105.525 103.75 100C103.75 94.475 108.225 90 113.75 90C119.275 90 123.75 94.475 123.75 100ZM113.75 105C116.513 105 118.75 102.763 118.75 100C118.75 97.2365 116.513 95 113.75 95C110.987 95 108.75 97.2365 108.75 100C108.75 102.763 110.987 105 113.75 105ZM92.5 125.667C92.5 118.573 106.658 115 113.75 115C120.842 115 135 118.573 135 125.667V135H92.5V125.667ZM97.5 130V125.667C97.5 125.644 97.4997 125.592 97.565 125.466C97.6445 125.312 97.8282 125.039 98.2212 124.675C99.0447 123.912 100.424 123.079 102.331 122.312C106.153 120.775 110.831 120 113.75 120C116.669 120 121.347 120.775 125.169 122.312C127.076 123.079 128.455 123.912 129.279 124.675C129.672 125.039 129.855 125.312 129.935 125.466C130 125.592 130 125.644 130 125.667V130H97.5ZM114 83.7645C116.927 84.6853 119 85 119 85V77.7082H119.896C128.238 77.7082 135 70.946 135 62.6043C135 54.2624 128.238 47.5 119.896 47.5H110.104C101.762 47.5 95 54.2624 95 62.6043C95 75.844 106.966 81.5528 114 83.7645ZM119.896 72.7082H114V78.4893C112.543 77.964 110.955 77.2902 109.384 76.4385C104.178 73.6135 100 69.372 100 62.6043C100 57.0238 104.524 52.5 110.104 52.5H119.896C125.476 52.5 130 57.0238 130 62.6043C130 68.1845 125.476 72.7082 119.896 72.7082Z" fill="#F4F0E7"/>
</svg>
