<svg width="180" height="180" viewBox="0 0 180 180" fill="none" xmlns="http://www.w3.org/2000/svg">
<rect x="1" y="1" width="178" height="178" rx="89" fill="#937713" stroke="#E2CE9C" stroke-width="2"/>
<g clip-path="url(#clip0_93_385)">
<path d="M47.6081 76.1175C47.9831 75.1856 51.2025 66.8831 48.5363 62.4187C47.5988 60.8494 46.065 59.9044 44.0963 59.685C41.4263 59.3869 39.7913 60.3825 38.8894 61.2712C37.4063 62.7244 36.9113 64.7831 36.7631 66.3094C35.2388 66.4575 33.18 66.9525 31.725 68.4356C30.8363 69.3394 29.8425 70.9762 30.1388 73.6425C30.3563 75.6112 31.3031 77.1469 32.8725 78.0844C34.1588 78.8512 35.7619 79.1325 37.4175 79.1325C41.5069 79.1325 45.9056 77.4244 46.5694 77.1562C47.0419 76.965 47.4169 76.59 47.6081 76.1175ZM44.415 73.9594C41.7244 74.9137 36.8494 76.0875 34.7944 74.8631C34.4231 74.64 33.9788 74.2537 33.8663 73.2262C33.705 71.775 34.2244 71.2387 34.395 71.0644C35.25 70.185 37.0163 70.0031 37.9856 70.0031C38.1675 70.0031 38.3213 70.0106 38.4338 70.02C38.9813 70.0762 39.5363 69.8719 39.93 69.4781C40.3238 69.0844 40.5206 68.5369 40.4719 67.9819C40.4194 67.3969 40.4381 64.9987 41.5125 63.9487C41.6869 63.7762 42.2119 63.2419 43.68 63.4144C44.7056 63.5287 45.0919 63.9694 45.315 64.3425C46.5075 66.3337 45.48 70.995 44.415 73.9594ZM134.333 69.2531C134.963 69.4931 139.08 71.0044 142.939 71.0044C144.589 71.0044 146.192 70.7287 147.454 69.9562C148.911 69.0656 149.788 67.6406 149.991 65.8331C150.21 63.8494 149.717 62.0981 148.566 60.765C147.276 59.2725 145.462 58.6237 144.159 58.3425C143.878 57.0412 143.229 55.2262 141.737 53.9362C140.404 52.7869 138.66 52.2994 136.669 52.5112C134.861 52.7119 133.434 53.5894 132.546 55.0481C129.973 59.2612 132.906 67.2712 133.249 68.1694C133.438 68.6662 133.834 69.0619 134.333 69.2531ZM135.744 56.9981C135.943 56.6737 136.256 56.3306 137.081 56.2387C138.023 56.13 138.739 56.3062 139.273 56.7637C140.301 57.6431 140.599 59.4506 140.627 60.0637C140.661 61.0406 141.448 61.8281 142.427 61.8731C143.049 61.9012 144.857 62.1994 145.736 63.2269C146.194 63.7612 146.366 64.4794 146.261 65.4187C146.169 66.2419 145.826 66.555 145.502 66.7556C143.766 67.8131 139.448 67.0294 136.468 66.0337C135.473 63.0562 134.685 58.7325 135.744 56.9981ZM122.94 52.35C123.174 52.4512 123.426 52.5 123.675 52.5C123.924 52.5 124.176 52.4512 124.41 52.35C125.7 51.8025 137.053 46.7981 138.782 39.9431C139.359 37.6537 138.814 35.3812 137.203 33.3694C134.998 30.6131 132.579 30.0169 130.939 30C130.913 30 130.89 30 130.866 30C127.862 30 125.222 31.8506 123.675 33.2287C122.115 31.8412 119.513 29.9287 116.413 30C114.773 30.0169 112.354 30.6131 110.149 33.3694C108.54 35.3812 107.994 37.6556 108.57 39.9431C110.297 46.7981 121.652 51.8025 122.94 52.35ZM113.079 35.7131C114.122 34.4081 115.223 33.765 116.443 33.75C116.458 33.75 116.473 33.75 116.486 33.75C118.899 33.75 121.451 36.1519 122.233 37.08C122.589 37.5094 123.118 37.755 123.675 37.755C124.232 37.755 124.759 37.5075 125.117 37.0819C125.143 37.0481 127.974 33.75 130.864 33.75C130.875 33.75 130.888 33.75 130.901 33.75C132.124 33.7612 133.228 34.4044 134.274 35.7131C135.161 36.8194 135.437 37.8694 135.148 39.0244C134.147 43.0069 127.11 46.9856 123.679 48.5737C120.368 47.0344 113.205 42.9862 112.209 39.0281C111.915 37.8712 112.192 36.8194 113.079 35.7131ZM84.375 65.625V61.875C84.375 60.8381 83.5369 60 82.5 60C81.4631 60 80.625 60.8381 80.625 61.875V65.625C80.625 66.6619 81.4631 67.5 82.5 67.5C83.5369 67.5 84.375 66.6619 84.375 65.625ZM97.5 75C96.4631 75 95.625 75.8381 95.625 76.875V80.625C95.625 81.6619 96.4631 82.5 97.5 82.5C98.5369 82.5 99.375 81.6619 99.375 80.625V76.875C99.375 75.8381 98.5369 75 97.5 75ZM60 59.0625V60.9375C60 63.5231 62.1019 65.625 64.6875 65.625C67.2731 65.625 69.375 63.5231 69.375 60.9375V59.0625C69.375 58.8487 69.3394 58.6444 69.3113 58.4381C69.33 58.3331 69.375 58.2356 69.375 58.125V54.375C69.375 53.9419 69.225 53.52 68.9475 53.1844L68.3869 52.5H71.25C72.2869 52.5 73.125 51.6619 73.125 50.625C73.125 49.5881 72.2869 48.75 71.25 48.75H68.2275C67.0238 48.75 65.8875 49.3331 65.1844 50.3081C64.4812 51.2831 64.2881 52.545 64.6706 53.6869C64.7419 53.9044 64.8544 54.1069 65.0006 54.2831L65.1113 54.4181C64.9669 54.405 64.8319 54.375 64.6875 54.375C62.1019 54.375 60 56.4769 60 59.0625ZM65.625 60.9375C65.625 61.4531 65.2031 61.875 64.6875 61.875C64.1719 61.875 63.75 61.4531 63.75 60.9375V59.0625C63.75 58.5469 64.1719 58.125 64.6875 58.125C65.2031 58.125 65.625 58.5469 65.625 59.0625V60.9375Z" fill="#F4F0E7"/>
<path d="M142.073 101.25C140.636 101.25 139.318 100.526 138.547 99.315L128.151 82.9781C127.725 82.3087 127.5 81.5325 127.5 80.7375V71.25C127.5 61.9444 119.931 54.375 110.625 54.375H106.875C98.5069 54.375 91.5638 60.5006 90.2438 68.5013C90.1013 68.7656 90 69.0525 90 69.375V58.9012L90.5494 59.4506C90.9075 59.8087 91.3875 60 91.875 60C92.1169 60 92.3606 59.955 92.5931 59.8575C93.2944 59.5687 93.75 58.8825 93.75 58.125V46.875C93.75 37.5694 86.1806 30 76.875 30H73.125H69.375C60.0694 30 52.5 37.5694 52.5 46.875V58.125C52.5 58.2788 52.5188 58.4306 52.5563 58.5787L56.3063 73.5788C56.5163 74.415 57.2644 75 58.125 75H61.875C62.7694 75 63.5381 74.37 63.7125 73.4925L64.4625 69.7425C64.665 68.7262 64.0088 67.74 62.9925 67.5356C61.9763 67.3294 60.9881 67.9894 60.7856 69.0056L60.3394 71.25H59.5912L56.25 57.8944V46.875C56.25 39.6394 62.1394 33.75 69.375 33.75H73.125H76.875C84.1106 33.75 90 39.6394 90 46.875V53.5988L89.4525 53.0512C89.1131 52.7119 88.6444 52.5 88.125 52.5C78.0506 52.5 74.6081 45.1819 73.4944 39.0394C73.3087 38.0231 72.3487 37.3444 71.3137 37.5281C70.2956 37.7137 69.6206 38.6887 69.8025 39.7087C71.5856 49.53 77.5331 55.44 86.2481 56.1713V56.25V73.125C86.2481 76.2263 83.7244 78.75 80.6231 78.75H67.4981C66.4613 78.75 65.6231 79.5881 65.6231 80.625C65.6231 81.6619 66.4613 82.5 67.4981 82.5H70.3537L67.9894 88.41L56.7394 83.16C56.7487 83.1356 56.7656 83.1169 56.775 83.0925L58.0256 79.3425C58.3537 78.36 57.8231 77.2988 56.8406 76.9706C55.8506 76.6406 54.7969 77.1731 54.4688 78.1556L53.3306 81.5681L53.1188 81.4688C51.3413 80.6381 49.2919 80.7731 47.6381 81.825C45.9881 82.8825 45 84.6825 45 86.6437C45 87.4069 45.1613 88.1325 45.4388 88.8037C45.4313 88.8131 45.4181 88.8169 45.4106 88.8281L40.6406 94.7925C38.5369 97.4231 38.0081 101.002 39.2569 104.128L48.7837 127.943L50.6325 148.294C50.7206 149.259 51.5288 150 52.5 150H76.875C77.9119 150 78.75 149.162 78.75 148.125C78.75 147.088 77.9119 146.25 76.875 146.25H54.2119L52.4925 127.329C52.4756 127.149 52.4344 126.973 52.3669 126.804L42.7388 102.737C41.9888 100.86 42.3075 98.7131 43.5694 97.1344L47.9625 91.6444C48.5663 91.9781 49.2375 92.2069 49.9538 92.3025L73.7662 95.4788L83.6344 115.215C83.9644 115.871 84.6262 116.25 85.3144 116.25C85.5956 116.25 85.8825 116.186 86.1506 116.053C87.0769 115.59 87.4519 114.463 86.9887 113.537L76.6762 92.9119C76.6481 92.8575 76.5994 92.8238 76.5675 92.7731C76.4812 92.6344 76.3875 92.5012 76.2656 92.3869C76.1925 92.3194 76.11 92.2744 76.0294 92.22C75.9487 92.1656 75.8831 92.0944 75.7913 92.0513L71.3944 89.9981L74.3944 82.5H80.625C85.7944 82.5 90 78.2944 90 73.125V86.25C90 90.8569 93.3487 94.6781 97.7362 95.46L97.6312 95.625H93.75C92.3194 95.625 91.0369 96.42 90.3975 97.6969C89.7563 98.9756 89.8913 100.479 90.75 101.623L93.75 105.624V106.172L83.9925 124.466L82.2675 122.741C82.5337 122.235 82.5787 121.627 82.3256 121.084L74.2406 103.761C72.7312 100.526 69.9075 98.0738 66.4969 97.0294C63.0844 95.9869 59.3738 96.4425 56.3138 98.2763C50.6981 101.646 48.5925 108.876 51.5194 114.737L62.0719 135.84C62.3231 136.343 62.7863 136.706 63.3338 136.83C63.4744 136.86 63.6113 136.875 63.75 136.875C64.1644 136.875 64.5694 136.738 64.9013 136.479L79.4137 125.192L82.1475 127.926L80.8444 130.369C80.3569 131.282 80.7037 132.418 81.6169 132.907C82.5356 133.389 83.6662 133.044 84.1556 132.135L97.2806 107.526C97.425 107.252 97.5 106.948 97.5 106.641V105C97.5 104.593 97.3687 104.199 97.125 103.875L93.75 99.375H98.6719C99.3188 99.375 99.9188 99.0412 100.262 98.4937L106.453 88.59L108.936 95.2106C109.884 97.7362 109.629 100.513 108.242 102.829L105.216 107.88L86.7 143.226C86.3437 143.906 85.7475 144.124 85.4231 144.191C84.8756 144.306 84.3056 144.171 83.8687 143.82L72.4219 134.661C71.6119 134.014 70.4344 134.151 69.7856 134.953C69.1387 135.763 69.2719 136.943 70.0781 137.589L81.525 146.749C82.5337 147.555 83.7675 147.981 85.0312 147.981C85.4175 147.981 85.8056 147.941 86.1919 147.861C87.8287 147.518 89.2144 146.473 89.9981 144.998V148.125C89.9981 149.162 90.8362 150 91.8731 150C92.91 150 93.7481 149.162 93.7481 148.125V138.75C93.7481 138.518 93.6938 138.302 93.6169 138.098L93.6619 138.009L97.5 143.124V148.125C97.5 149.162 98.3381 150 99.375 150H110.625C111.662 150 112.5 149.162 112.5 148.125C112.5 147.088 111.662 146.25 110.625 146.25H101.25V142.5C101.25 142.093 101.119 141.699 100.875 141.375L95.5912 134.331L108.484 109.716L111.311 105H121.875C121.935 105 121.986 104.972 122.046 104.966C122.16 104.97 122.269 105 122.383 105C124.573 105 126.564 106.162 127.654 108.009C127.556 108.236 127.5 108.486 127.5 108.75V112.515C125.066 110.827 122.046 110.177 119.13 110.764C113.226 111.945 109.38 117.711 110.561 123.617C110.565 123.634 110.569 123.653 110.573 123.669L116.299 148.547C116.494 149.398 117.251 150 118.125 150H133.125C133.656 150 134.162 149.775 134.516 149.381C134.873 148.987 135.043 148.461 134.991 147.934L132.154 120.486C132.036 119.197 131.679 117.958 131.136 116.811C131.194 116.631 131.25 116.449 131.25 116.25V115.847C133.127 120.107 135 124.862 135 127.5C135 128.342 135.563 129.083 136.374 129.308C137.177 129.527 138.049 129.189 138.482 128.466L142.5 121.768L146.518 128.464C146.861 129.039 147.478 129.375 148.125 129.375C148.292 129.375 148.461 129.353 148.626 129.308C149.437 129.083 150 128.342 150 127.5V109.178C150 104.805 146.445 101.25 142.073 101.25ZM50.4488 88.5844C49.4813 88.4569 48.75 87.6206 48.75 86.6437C48.75 85.9612 49.0819 85.3575 49.6556 84.9919C49.9819 84.7856 50.34 84.6806 50.7038 84.6806C50.9831 84.6806 51.2681 84.7425 51.5363 84.87L63.1181 90.2756L50.4488 88.5844ZM64.4044 132.116L54.8756 113.059C52.8169 108.941 54.2963 103.86 58.245 101.49C60.3938 100.2 62.9981 99.8794 65.4 100.614C67.7962 101.347 69.7819 103.072 70.8412 105.343L78.2944 121.313L64.4044 132.116ZM106.828 84.8569C105.397 84.7162 104.036 85.38 103.273 86.6006L99.9094 91.9837C99.7369 91.9312 99.5644 91.875 99.375 91.875C96.2738 91.875 93.75 89.3513 93.75 86.25V71.25C93.75 71.055 93.7537 70.8581 93.7631 70.6631C93.9431 73.0856 95.9719 75 98.4375 75H104.063C104.578 75 105 75.4219 105 75.9375C105 78.5231 107.102 80.625 109.688 80.625H111.563C112.078 80.625 112.5 81.0469 112.5 81.5625V94.0631C112.479 94.0069 112.468 93.9488 112.448 93.8925L109.965 87.2737C109.459 85.9256 108.257 85.0012 106.828 84.8569ZM113.224 98.7844C113.586 99.6863 114.098 100.502 114.696 101.25H112.882C113.079 100.44 113.192 99.6169 113.224 98.7844ZM119.618 146.25L114.233 122.854C113.867 120.984 114.246 119.081 115.303 117.495C116.366 115.899 117.988 114.814 119.869 114.439C121.862 114.034 123.939 114.51 125.567 115.727C127.196 116.942 128.237 118.802 128.421 120.847L131.047 146.25H119.618ZM146.25 120.731L144.107 117.161C143.43 116.033 141.568 116.033 140.891 117.161L137.79 122.332C136.616 118.496 134.573 114.039 132.816 110.207C132.296 109.074 131.822 108.039 131.432 107.151C129.863 103.566 126.309 101.25 122.383 101.25C119.003 101.25 116.25 98.4975 116.25 95.1169V81.5625C116.25 78.9769 114.148 76.875 111.563 76.875H109.688C109.172 76.875 108.75 76.4531 108.75 75.9375C108.75 73.3519 106.648 71.25 104.063 71.25H98.4375C97.9219 71.25 97.5 70.8281 97.5 70.3125V62.0719C99.8831 59.6381 103.206 58.125 106.875 58.125H110.625C117.861 58.125 123.75 64.0144 123.75 71.25V80.7375C123.75 82.2506 124.179 83.7225 124.989 84.9956L135.384 101.331C136.847 103.627 139.348 105 142.073 105C144.377 105 146.25 106.873 146.25 109.178V120.731Z" fill="#F4F0E7"/>
</g>
<defs>
<clipPath id="clip0_93_385">
<rect width="120" height="120" fill="white" transform="translate(30 30)"/>
</clipPath>
</defs>
</svg>
