<svg width="180" height="180" viewBox="0 0 180 180" fill="none" xmlns="http://www.w3.org/2000/svg">
<rect x="1" y="1" width="178" height="178" rx="89" fill="#937713" stroke="#E2CE9C" stroke-width="2"/>
<g clip-path="url(#clip0_93_381)">
<path d="M90 30C78.1332 30 66.5328 33.5189 56.6658 40.1118C46.7989 46.7047 39.1085 56.0754 34.5673 67.039C30.026 78.0026 28.8378 90.0666 31.1529 101.705C33.468 113.344 39.1825 124.035 47.5736 132.426C55.9648 140.818 66.6558 146.532 78.2946 148.847C89.9335 151.162 101.997 149.974 112.961 145.433C123.925 140.892 133.295 133.201 139.888 123.334C146.481 113.467 150 101.867 150 90C149.982 74.0925 143.655 58.8416 132.407 47.5933C121.158 36.345 105.908 30.0179 90 30V30ZM90 146.25C78.8748 146.25 67.9995 142.951 58.7492 136.77C49.4989 130.589 42.2892 121.804 38.0318 111.526C33.7744 101.248 32.6604 89.9376 34.8309 79.0262C37.0013 68.1147 42.3586 58.0919 50.2253 50.2252C58.092 42.3585 68.1148 37.0012 79.0262 34.8308C89.9376 32.6604 101.248 33.7743 111.526 38.0318C121.804 42.2892 130.589 49.4989 136.77 58.7492C142.951 67.9994 146.25 78.8748 146.25 90C146.233 104.913 140.301 119.211 129.756 129.756C119.211 140.301 104.913 146.233 90 146.25V146.25Z" fill="#F4F0E7"/>
<path d="M122.869 86.7628C124.045 85.2848 124.686 83.4517 124.688 81.5625C124.685 79.3255 123.795 77.1809 122.213 75.5991C120.632 74.0173 118.487 73.1275 116.25 73.125H103.166C103.136 73.0817 103.107 73.0373 103.079 72.9919C102.285 71.6607 102.913 69.2044 103.253 68.2716C105.875 63.9244 107.14 56.0316 104.741 50.1535C104.16 48.5453 103.192 47.1052 101.922 45.9606C100.651 44.8159 99.1185 44.0021 97.4587 43.591C94.1231 42.781 91.6556 43.0238 90.1247 44.31C89.5704 44.7936 89.1437 45.4062 88.8821 46.0937C88.6205 46.7812 88.5321 47.5225 88.6247 48.2522C88.6697 48.9328 88.7259 49.621 88.7822 50.3119C89.1075 54.301 89.415 58.0688 87.5644 61.2863C85.2169 65.3672 81.9797 67.6407 78.2306 70.2741C77.0906 71.0757 75.9103 71.9053 74.7084 72.8185C73.7892 73.4892 72.9137 74.2179 72.0872 75H60.9375C59.4347 75.0134 57.9985 75.6223 56.944 76.6931C55.8895 77.764 55.3028 79.2094 55.3125 80.7122V116.163C55.3028 117.666 55.8895 119.111 56.944 120.182C57.9985 121.253 59.4347 121.862 60.9375 121.875H73.5328C75.7969 125.438 80.2219 129.378 88.7381 129.377C90.143 129.372 91.5461 129.274 92.9381 129.084H94.0875C93.1181 128.013 92.3467 126.779 91.8094 125.438C77.4797 127.05 75.2212 117.073 75 115.849V108.527C75 108.03 74.8025 107.553 74.4508 107.201C74.0992 106.849 73.6223 106.652 73.125 106.652C72.6277 106.652 72.1508 106.849 71.7992 107.201C71.4475 107.553 71.25 108.03 71.25 108.527V116C71.2499 116.086 71.2559 116.173 71.2678 116.258C71.3807 116.892 71.5425 117.516 71.7516 118.125H60.9375C60.4289 118.113 59.9459 117.899 59.5944 117.531C59.243 117.164 59.0517 116.671 59.0625 116.163V80.7122C59.0517 80.2036 59.243 79.7114 59.5944 79.3436C59.9459 78.9758 60.4289 78.7623 60.9375 78.75H70.3125V89.3466C70.3125 89.8439 70.51 90.3208 70.8617 90.6724C71.2133 91.0241 71.6902 91.2216 72.1875 91.2216C72.6848 91.2216 73.1617 91.0241 73.5133 90.6724C73.865 90.3208 74.0625 89.8439 74.0625 89.3466V78.4144C74.9179 77.4222 75.8979 76.5446 76.9781 75.8035C78.1247 74.9316 79.275 74.1235 80.3869 73.3425C84.3291 70.5732 88.0528 67.9566 90.8147 63.1557C93.2484 58.9275 92.8612 54.1885 92.5191 50.0063C92.4629 49.3408 92.4122 48.6748 92.3672 48.0085C92.3484 47.7122 92.3616 47.3269 92.5369 47.1797C92.8556 46.9135 94.0641 46.6247 96.5747 47.2341C97.6559 47.5099 98.6514 48.0508 99.471 48.8081C100.291 49.5653 100.908 50.5149 101.269 51.571C103.158 56.1957 102.124 62.9972 99.9731 66.4491C99.9151 66.541 99.8655 66.6379 99.825 66.7388C99.0165 68.7689 98.7855 70.983 99.1575 73.1363C96.96 73.1941 94.8717 74.1069 93.3366 75.6804C91.8016 77.254 90.9409 79.3643 90.9375 81.5625C90.9386 83.4517 91.5797 85.2848 92.7563 86.7628C91.1256 87.3504 89.7159 88.4267 88.7194 89.8449C87.723 91.2632 87.1883 92.9542 87.1883 94.6875C87.1883 96.4208 87.723 98.1119 88.7194 99.5301C89.7159 100.948 91.1256 102.025 92.7563 102.612C91.9268 103.657 91.3585 104.885 91.0983 106.194C90.8381 107.503 90.8936 108.855 91.2602 110.138C91.6268 111.421 92.2939 112.598 93.2062 113.572C94.1185 114.546 95.2498 115.288 96.5063 115.737C95.3297 117.215 94.6886 119.048 94.6875 120.938C94.69 123.175 95.5797 125.319 97.1615 126.901C98.7433 128.483 100.888 129.373 103.125 129.375H112.5C114.737 129.373 116.882 128.483 118.463 126.901C120.045 125.319 120.935 123.175 120.938 120.938C120.936 119.048 120.295 117.215 119.119 115.737C120.375 115.288 121.506 114.546 122.419 113.572C123.331 112.598 123.998 111.421 124.365 110.138C124.731 108.855 124.787 107.503 124.527 106.194C124.267 104.885 123.698 103.657 122.869 102.612C124.499 102.025 125.909 100.948 126.906 99.5301C127.902 98.1119 128.437 96.4208 128.437 94.6875C128.437 92.9542 127.902 91.2632 126.906 89.8449C125.909 88.4267 124.499 87.3504 122.869 86.7628V86.7628ZM99.375 76.875H116.25C117.493 76.875 118.685 77.3689 119.565 78.248C120.444 79.127 120.938 80.3193 120.938 81.5625C120.938 82.8057 120.444 83.998 119.565 84.8771C118.685 85.7562 117.493 86.25 116.25 86.25H99.375C98.1318 86.25 96.9395 85.7562 96.0604 84.8771C95.1814 83.998 94.6875 82.8057 94.6875 81.5625C94.6875 80.3193 95.1814 79.127 96.0604 78.248C96.9395 77.3689 98.1318 76.875 99.375 76.875ZM112.5 125.625H103.125C101.882 125.625 100.69 125.131 99.8104 124.252C98.9314 123.373 98.4375 122.181 98.4375 120.938C98.4375 119.694 98.9314 118.502 99.8104 117.623C100.69 116.744 101.882 116.25 103.125 116.25H112.5C113.743 116.25 114.935 116.744 115.815 117.623C116.694 118.502 117.188 119.694 117.188 120.938C117.188 122.181 116.694 123.373 115.815 124.252C114.935 125.131 113.743 125.625 112.5 125.625V125.625ZM116.25 112.5H99.375C98.1318 112.5 96.9395 112.006 96.0604 111.127C95.1814 110.248 94.6875 109.056 94.6875 107.813C94.6875 106.569 95.1814 105.377 96.0604 104.498C96.9395 103.619 98.1318 103.125 99.375 103.125H116.25C117.493 103.125 118.685 103.619 119.565 104.498C120.444 105.377 120.938 106.569 120.938 107.813C120.938 109.056 120.444 110.248 119.565 111.127C118.685 112.006 117.493 112.5 116.25 112.5V112.5ZM120 99.375H95.625C94.3818 99.375 93.1895 98.8812 92.3104 98.0021C91.4314 97.123 90.9375 95.9307 90.9375 94.6875C90.9375 93.4443 91.4314 92.252 92.3104 91.373C93.1895 90.4939 94.3818 90 95.625 90H120C121.243 90 122.435 90.4939 123.315 91.373C124.194 92.252 124.688 93.4443 124.688 94.6875C124.688 95.9307 124.194 97.123 123.315 98.0021C122.435 98.8812 121.243 99.375 120 99.375V99.375Z" fill="#F4F0E7"/>
<path d="M65.4975 58.0172L64.7644 62.5107C64.7079 62.8579 64.7502 63.214 64.8865 63.5383C65.0228 63.8626 65.2476 64.1421 65.5352 64.3447C65.8227 64.5473 66.1615 64.6649 66.5128 64.6841C66.8641 64.7033 67.2137 64.6233 67.5216 64.4532L71.25 62.3925L74.9785 64.4532C75.2864 64.6233 75.636 64.7033 75.9873 64.6841C76.3385 64.6649 76.6773 64.5473 76.9649 64.3447C77.2525 64.1421 77.4773 63.8626 77.6136 63.5383C77.7499 63.214 77.7922 62.8579 77.7357 62.5107L77.0025 58.0172L80.0925 54.8513C80.3331 54.6045 80.5009 54.2962 80.5777 53.9603C80.6545 53.6243 80.6372 53.2737 80.5277 52.947C80.4182 52.6202 80.2208 52.3299 79.9572 52.108C79.6935 51.8861 79.3738 51.7412 79.0332 51.6891L74.8397 51.0479L72.9478 47.0166C72.7966 46.694 72.5566 46.4211 72.256 46.2299C71.9553 46.0388 71.6063 45.9373 71.25 45.9373C70.8937 45.9373 70.5448 46.0388 70.2441 46.2299C69.9434 46.4211 69.7034 46.694 69.5522 47.0166L67.6603 51.0479L63.4669 51.6891C63.1263 51.7412 62.8065 51.8861 62.5429 52.108C62.2792 52.3299 62.0818 52.6202 61.9724 52.947C61.8629 53.2737 61.8456 53.6243 61.9224 53.9603C61.9991 54.2962 62.167 54.6045 62.4075 54.8513L65.4975 58.0172ZM69.2157 54.6029C69.5199 54.5563 69.8081 54.4356 70.0546 54.2513C70.3012 54.0671 70.4986 53.8249 70.6294 53.5463L71.25 52.2254L71.8707 53.5472C72.0016 53.8257 72.1991 54.0676 72.4456 54.2517C72.6922 54.4358 72.9802 54.5564 73.2844 54.6029L74.8594 54.8438L73.6575 56.0757C73.4525 56.2859 73.2997 56.5413 73.2114 56.8214C73.1232 57.1015 73.1019 57.3984 73.1494 57.6882L73.4128 59.3035L72.1566 58.6097C71.879 58.4561 71.5669 58.3755 71.2496 58.3755C70.9323 58.3755 70.6202 58.4561 70.3425 58.6097L69.0863 59.3035L69.3507 57.6872C69.398 57.3976 69.3767 57.1009 69.2884 56.821C69.2002 56.5411 69.0474 56.2858 68.8425 56.0757L67.6397 54.8438L69.2157 54.6029Z" fill="#F4F0E7"/>
</g>
<defs>
<clipPath id="clip0_93_381">
<rect width="120" height="120" fill="white" transform="translate(30 30)"/>
</clipPath>
</defs>
</svg>
