<svg width="180" height="180" viewBox="0 0 180 180" fill="none" xmlns="http://www.w3.org/2000/svg">
<rect x="1" y="1" width="178" height="178" rx="89" fill="#937713" stroke="#E2CE9C" stroke-width="2"/>
<path d="M143.119 50.7375L139.894 49.6125C138.931 49.277 137.91 49.1413 136.893 49.2138C135.876 49.2862 134.884 49.5652 133.979 50.0337C133.073 50.5023 132.273 51.1505 131.626 51.9389C130.98 52.7272 130.501 53.6391 130.219 54.6188L128.006 62.3438C127.474 64.1937 127.674 66.1772 128.564 67.8839C129.454 69.5906 130.966 70.8897 132.788 71.5125L136.013 72.6188L131.625 91.875H120V80.625C120 80.1278 119.802 79.6508 119.451 79.2992C119.099 78.9476 118.622 78.75 118.125 78.75H91.875V72.375C94.4847 71.6497 96.8603 70.2566 98.7673 68.3331C100.674 66.4096 102.047 64.0221 102.75 61.4063C105 52.5 96.9 47.5313 90 53.6063C83.1 47.55 75 52.4625 77.25 61.4063C77.9529 64.0221 79.3256 66.4096 81.2327 68.3331C83.1397 70.2566 85.5153 71.6497 88.125 72.375V78.75H61.875C61.3777 78.75 60.9008 78.9476 60.5492 79.2992C60.1975 79.6508 60 80.1278 60 80.625V91.875H48.375L43.9875 72.6188L47.2125 71.5125C49.0337 70.8897 50.5458 69.5906 51.4358 67.8839C52.3258 66.1772 52.5256 64.1937 51.9937 62.3438L49.7812 54.6188C49.499 53.6391 49.02 52.7272 48.3735 51.9389C47.727 51.1505 46.9265 50.5023 46.021 50.0337C45.1155 49.5652 44.124 49.2862 43.107 49.2138C42.0901 49.1413 41.069 49.277 40.1062 49.6125L36.8812 50.7375C36.4399 50.8804 36.0671 51.1819 35.8351 51.5836C35.6031 51.9853 35.5282 52.4588 35.625 52.9125L45 93.9563V133.125H48.75V103.125H60V113.588C60 114.085 60.1975 114.562 60.5492 114.913C60.9008 115.265 61.3777 115.463 61.875 115.463C66.0187 115.463 67.0125 114.019 69.2812 113.588L73.2375 133.125H76.9875L73.125 113.475C75.5062 113.981 76.4625 115.463 80.625 115.463C84.7875 115.463 85.725 114 88.125 113.475V129.375H82.5V133.125H97.5V129.375H91.875V113.475C94.275 113.981 95.175 115.463 99.375 115.463C103.575 115.463 104.513 113.981 106.875 113.475L102.938 133.125H106.688L110.644 113.494C113.025 114.038 113.869 115.369 118.144 115.369C118.641 115.369 119.118 115.171 119.47 114.82C119.821 114.468 120.019 113.991 120.019 113.494V103.125H131.269V133.125H135.019V93.9563L144.394 52.9125C144.49 52.4564 144.412 51.9809 144.176 51.5788C143.941 51.1766 143.564 50.8767 143.119 50.7375V50.7375ZM80.8875 60.4875C79.3875 54.4313 84.5062 52.5375 88.5375 57.4688C88.7132 57.6878 88.9358 57.8645 89.1889 57.986C89.4421 58.1074 89.7192 58.1705 90 58.1705C90.2808 58.1705 90.5579 58.1074 90.8111 57.986C91.0642 57.8645 91.2868 57.6878 91.4625 57.4688C92.5837 56.0602 94.1508 55.0749 95.9063 54.675C98.2313 54.4313 100.088 56.55 99.1125 60.4875C98.5361 62.6196 97.3789 64.5496 95.7699 66.0626C94.1609 67.5755 92.1634 68.612 90 69.0563C87.8366 68.612 85.8391 67.5755 84.2301 66.0626C82.6211 64.5496 81.4639 62.6196 80.8875 60.4875V60.4875ZM39.6375 53.7188L41.2875 53.1563C41.7683 52.9884 42.2782 52.9201 42.7862 52.9558C43.2942 52.9914 43.7896 53.1301 44.2423 53.3634C44.6949 53.5967 45.0953 53.9198 45.419 54.313C45.7427 54.7061 45.9829 55.161 46.125 55.65L48.3937 63.375C48.6619 64.3025 48.5621 65.2976 48.1151 66.1533C47.668 67.0089 46.9082 67.6592 45.9937 67.9688L43.125 68.9438L39.6375 53.7188ZM48.75 99.375V95.625H60V99.375H48.75ZM116.25 111.544C113.981 111.056 112.988 109.538 108.75 109.538C103.706 109.538 103.369 111.713 99.375 111.713C95.3812 111.713 95.0438 109.538 90 109.538C84.9562 109.538 84.6 111.713 80.625 111.713C76.65 111.713 76.2937 109.538 71.25 109.538C66.9937 109.538 66 111.056 63.75 111.544V82.5H116.25V111.544ZM120 99.375V95.625H131.25V99.375H120ZM136.875 68.9438L134.044 67.9688C133.129 67.6592 132.369 67.0089 131.922 66.1533C131.475 65.2976 131.376 64.3025 131.644 63.375L133.856 55.65C133.998 55.1544 134.24 54.6932 134.567 54.2953C134.895 53.8973 135.301 53.5712 135.76 53.3371C136.219 53.1031 136.722 52.9663 137.236 52.9352C137.751 52.9041 138.266 52.9793 138.75 53.1563L140.4 53.7188L136.875 68.9438Z" fill="#F4F0E7"/>
</svg>
