<svg width="180" height="180" viewBox="0 0 180 180" fill="none" xmlns="http://www.w3.org/2000/svg">
<rect x="1" y="1" width="178" height="178" rx="89" fill="#937713" stroke="#E2CE9C" stroke-width="2"/>
<path fill-rule="evenodd" clip-rule="evenodd" d="M80.5078 32.4609C79.537 32.4609 78.75 33.2479 78.75 34.2188V34.5703H76.7578C75.787 34.5703 75 35.3573 75 36.3281V70.4297H69.9609H66.0729C61.4245 70.4297 57.6562 74.1979 57.6562 78.8463V133.029C57.6562 137.677 61.4245 141.445 66.0729 141.445H66.2109V142.852C66.2109 145.57 68.4145 147.773 71.1328 147.773C73.8511 147.773 76.0547 145.57 76.0547 142.852V141.445H104.18V142.852C104.18 145.57 106.383 147.773 109.102 147.773C111.82 147.773 114.023 145.57 114.023 142.852V141.445C118.628 141.393 122.344 137.645 122.344 133.029V78.8463C122.344 74.1979 118.576 70.4297 113.927 70.4297H110.039H105V36.3281C105 35.3573 104.213 34.5703 103.242 34.5703H101.25V34.2188C101.25 33.2479 100.463 32.4609 99.4922 32.4609H80.5078ZM101.25 38.0859V38.4375C101.25 39.4083 100.463 40.1953 99.4922 40.1953H80.5078C79.537 40.1953 78.75 39.4083 78.75 38.4375V38.0859H78.5156V70.4297H101.484V38.0859H101.25ZM97.7344 36.3281V35.9766H82.2656V36.3281V36.6797H97.7344V36.3281ZM68.2031 73.9453H66.0729C63.3661 73.9453 61.1719 76.1396 61.1719 78.8463V133.029C61.1719 135.735 63.3661 137.93 66.0729 137.93H68.2031V73.9453ZM71.7188 137.93H108.281V73.9453H103.242H76.7578H71.7188V137.93ZM111.797 73.9453V137.93H113.927C116.634 137.93 118.828 135.735 118.828 133.029V78.8463C118.828 76.1396 116.634 73.9453 113.927 73.9453H111.797ZM110.039 141.445H107.695V142.852C107.695 143.628 108.325 144.258 109.102 144.258C109.878 144.258 110.508 143.628 110.508 142.852V141.445H110.039ZM69.9609 141.445H69.7266V142.852C69.7266 143.628 70.3561 144.258 71.1328 144.258C71.9095 144.258 72.5391 143.628 72.5391 142.852V141.445H69.9609ZM80.8594 80.625C80.8594 79.6542 81.6464 78.8672 82.6172 78.8672H97.3828C98.3536 78.8672 99.1406 79.6542 99.1406 80.625C99.1406 81.5958 98.3536 82.3828 97.3828 82.3828H82.6172C81.6464 82.3828 80.8594 81.5958 80.8594 80.625Z" fill="#F4F0E7"/>
</svg>
