<svg width="180" height="180" viewBox="0 0 180 180" fill="none" xmlns="http://www.w3.org/2000/svg">
<rect x="1" y="1" width="178" height="178" rx="89" fill="#937713" stroke="#E2CE9C" stroke-width="2"/>
<path d="M136.911 46.6105C136.281 45.4817 135.087 44.7803 133.795 44.7803H46.2056C44.9131 44.7803 43.7188 45.4817 43.0881 46.6113L32.2233 66.0946C31.5994 67.2122 31.6141 68.5375 32.262 69.6404C32.9092 70.7442 34.0595 71.4025 35.3391 71.4025H42.0498V122.669H38.6901C36.7229 122.669 35.1219 124.27 35.1219 126.239V131.651C35.1219 133.619 36.7229 135.22 38.6901 135.22H141.31C143.277 135.22 144.878 133.619 144.878 131.651V126.239C144.878 124.27 143.277 122.669 141.31 122.669H137.951V71.4025H144.66C145.939 71.4025 147.089 70.7442 147.737 69.6413C148.385 68.5383 148.401 67.2131 147.778 66.0946L136.911 46.6105ZM101.237 84.6956H124.401V122.669H101.237C101.236 116.849 101.235 84.455 101.237 84.6956ZM141.349 126.239V131.651C141.349 131.672 141.332 131.69 141.31 131.69L38.6513 131.651L38.6901 126.199L141.349 126.239ZM134.421 122.669H127.93V82.9309C127.93 81.9563 127.14 81.1661 126.165 81.1661H99.4725C98.498 81.1661 97.7078 81.9563 97.7078 82.9309V122.669H45.5792V71.4025H134.421V122.669ZM144.66 67.8731L35.3055 67.8137L46.2056 48.3097L133.829 48.3295L144.679 67.8714C144.679 67.8714 144.674 67.8731 144.66 67.8731Z" fill="#F4F0E7"/>
<path d="M53.8349 110.347H86.55C87.5245 110.347 88.3147 109.556 88.3147 108.582V85.4891C88.3147 84.5145 87.5245 83.7244 86.55 83.7244H53.8349C52.8603 83.7244 52.0702 84.5145 52.0702 85.4891V108.582C52.0702 109.556 52.8603 110.347 53.8349 110.347ZM84.7853 106.817H71.9576V87.2538H84.7853V106.817ZM55.5996 87.2538H68.4282V106.817H55.5996V87.2538V87.2538Z" fill="#F4F0E7"/>
<path d="M108.492 101.917H104.885V105.446H108.492V101.917Z" fill="#F4F0E7"/>
<path d="M70.6711 52.4871H64.0405C63.066 52.4871 62.2758 53.2772 62.2758 54.2518C62.2758 55.2263 63.066 56.0165 64.0405 56.0165H70.6711C71.6457 56.0165 72.4358 55.2263 72.4358 54.2518C72.4358 53.2772 71.6457 52.4871 70.6711 52.4871ZM56.7844 52.4871H51.2593C50.2848 52.4871 49.4946 53.2772 49.4946 54.2518C49.4946 55.2263 50.2848 56.0165 51.2593 56.0165H56.7844C57.7589 56.0165 58.5491 55.2263 58.5491 54.2518C58.5491 53.2772 57.7589 52.4871 56.7844 52.4871Z" fill="#F4F0E7"/>
</svg>
