<svg width="43" height="50" viewBox="0 0 43 50" fill="none" xmlns="http://www.w3.org/2000/svg">
<path d="M30.3333 0H12.6887V2.94192H30.3333V0Z" fill="#7B1305"/>
<path d="M30.3333 5.87024H12.6887V8.81216H30.3333V5.87024Z" fill="#7B1305"/>
<path d="M30.3333 2.95172H12.6887V5.89017H30.3333V2.95172Z" fill="#7B1305"/>
<path d="M24.4395 2.95172H18.5591V5.89017H24.4395V2.95172Z" fill="#F5B16A"/>
<path d="M15.6079 8.82196H6.78564V11.7639H15.6079V8.82196Z" fill="#7B1305"/>
<path d="M12.679 2.95172H9.73706V8.83209H12.679V2.95172Z" fill="#F5B16A"/>
<path d="M33.2715 2.95172H30.333V8.83209H33.2715V2.95172Z" fill="#F5B16A"/>
<path d="M36.2179 8.82196H27.4478V11.7639H36.2179V8.82196Z" fill="#7B1305"/>
<path d="M12.6559 11.7737H6.78564V26.4659H12.6559V11.7737Z" fill="#7B1305"/>
<path d="M36.2033 11.7737H30.333V26.4659H36.2033V11.7737Z" fill="#7B1305"/>
<path d="M15.6272 17.6439H12.6887V26.4662H15.6272V17.6439Z" fill="#7B1305"/>
<path d="M30.3406 17.6439H27.3813V26.4662H30.3406V17.6439Z" fill="#7B1305"/>
<path d="M24.4629 8.82196H18.4932V14.6922H24.4629V8.82196Z" fill="#F5B16A"/>
<path d="M15.6272 11.7737H12.6887V17.6541H15.6272V11.7737Z" fill="#F5B16A"/>
<path d="M30.3549 11.7737H27.4478V17.6541H30.3549V11.7737Z" fill="#F5B16A"/>
<path d="M27.3716 14.6923H15.6074V17.6307H27.3716V14.6923Z" fill="#F5B16A"/>
<path d="M18.5493 17.6439H15.6074V20.5858H18.5493V17.6439Z" fill="#F5B16A"/>
<path d="M27.3711 17.6439H24.4292V20.5963H27.3711V17.6439Z" fill="#F5B16A"/>
<path d="M24.4395 17.6439H18.5591V20.5963H24.4395V17.6439Z" fill="#D14681"/>
<path d="M18.4695 8.82196H15.6074V14.7023H18.4695V8.82196Z" fill="#1D1819"/>
<path d="M27.3711 8.82196H24.4292V14.7058H27.3711V8.82196Z" fill="#1D1819"/>
<path d="M39.1548 26.4659H3.86694V47.0615H39.1548V26.4659Z" fill="#D14681"/>
<path d="M9.7372 26.4659H3.86694V35.2878H9.7372V26.4659Z" fill="#7B1305"/>
<path d="M39.1549 26.4659H33.2847V35.2878H39.1549V26.4659Z" fill="#7B1305"/>
<path d="M30.3333 26.4659H12.6887V29.4078H30.3333V26.4659Z" fill="#D14681"/>
<path d="M27.3767 29.4176H15.873V32.356H27.3767V29.4176Z" fill="#D14681"/>
<path d="M12.679 26.4659H9.73706V35.2882H12.679V26.4659Z" fill="#F5B16A"/>
<path d="M15.8877 29.4176H12.6887V32.356H15.8877V29.4176Z" fill="#F5B16A"/>
<path d="M33.2749 26.4659H30.333V35.2882H33.2749V26.4659Z" fill="#F5B16A"/>
<path d="M30.3147 29.4176H27.1157V32.356H30.3147V29.4176Z" fill="#F5B16A"/>
<path d="M24.4329 32.3362H18.6255V35.2781H24.4329V32.3362Z" fill="#F5B16A"/>
<path d="M9.74732 35.2879H3.86694V38.2298H9.74732V35.2879Z" fill="#F5B16A"/>
<path d="M39.1581 35.2879H33.2847V38.2298H39.1581V35.2879Z" fill="#F5B16A"/>
<path d="M42.0847 47.0615H0.915283V50H42.0847V47.0615Z" fill="#D14681"/>
<path d="M27.3811 20.5956H15.6074V26.4659H27.3811V20.5956Z" fill="#D14681"/>
<path d="M24.4395 20.5956H18.5591V23.5341H24.4395V20.5956Z" fill="#F5B16A"/>
</svg>
